<mxfile host="app.diagrams.net" modified="2023-06-22T12:44:45.567Z" agent="Mozilla/5.0 (Macintosh; Intel Mac OS X 10_15_7) AppleWebKit/537.36 (KHTML, like Gecko) Chrome/114.0.0.0 Safari/537.36" etag="RZPY4ZQPNyqah3Jap-Vp" version="21.4.0" type="device">
  <diagram name="第 1 页" id="sb0t2ORKdQMVpz5g0RAz">
    <mxGraphModel dx="1862" dy="1176" grid="0" gridSize="10" guides="1" tooltips="1" connect="1" arrows="1" fold="1" page="1" pageScale="1" pageWidth="1654" pageHeight="2336" math="0" shadow="0">
      <root>
        <mxCell id="0" />
        <mxCell id="1" parent="0" />
        <mxCell id="vhvZTh_FQUSVOUHBl7UA-1" value="A" style="ellipse;whiteSpace=wrap;html=1;aspect=fixed;" vertex="1" parent="1">
          <mxGeometry x="12" y="120" width="80" height="80" as="geometry" />
        </mxCell>
        <mxCell id="vhvZTh_FQUSVOUHBl7UA-2" value="B" style="ellipse;whiteSpace=wrap;html=1;aspect=fixed;" vertex="1" parent="1">
          <mxGeometry x="132" y="120" width="80" height="80" as="geometry" />
        </mxCell>
        <mxCell id="vhvZTh_FQUSVOUHBl7UA-3" value="C" style="ellipse;whiteSpace=wrap;html=1;aspect=fixed;" vertex="1" parent="1">
          <mxGeometry x="252" y="120" width="80" height="80" as="geometry" />
        </mxCell>
        <mxCell id="vhvZTh_FQUSVOUHBl7UA-4" value="D" style="ellipse;whiteSpace=wrap;html=1;aspect=fixed;" vertex="1" parent="1">
          <mxGeometry x="372" y="120" width="80" height="80" as="geometry" />
        </mxCell>
        <mxCell id="vhvZTh_FQUSVOUHBl7UA-5" value="E" style="ellipse;whiteSpace=wrap;html=1;aspect=fixed;" vertex="1" parent="1">
          <mxGeometry x="492" y="120" width="80" height="80" as="geometry" />
        </mxCell>
        <mxCell id="vhvZTh_FQUSVOUHBl7UA-6" value="F" style="ellipse;whiteSpace=wrap;html=1;aspect=fixed;" vertex="1" parent="1">
          <mxGeometry x="612" y="120" width="80" height="80" as="geometry" />
        </mxCell>
        <mxCell id="vhvZTh_FQUSVOUHBl7UA-7" value="G" style="ellipse;whiteSpace=wrap;html=1;aspect=fixed;" vertex="1" parent="1">
          <mxGeometry x="732" y="120" width="80" height="80" as="geometry" />
        </mxCell>
        <mxCell id="vhvZTh_FQUSVOUHBl7UA-8" value="H" style="ellipse;whiteSpace=wrap;html=1;aspect=fixed;" vertex="1" parent="1">
          <mxGeometry x="852" y="120" width="80" height="80" as="geometry" />
        </mxCell>
        <mxCell id="vhvZTh_FQUSVOUHBl7UA-9" value="I" style="ellipse;whiteSpace=wrap;html=1;aspect=fixed;" vertex="1" parent="1">
          <mxGeometry x="972" y="120" width="80" height="80" as="geometry" />
        </mxCell>
        <mxCell id="vhvZTh_FQUSVOUHBl7UA-10" value="J" style="ellipse;whiteSpace=wrap;html=1;aspect=fixed;" vertex="1" parent="1">
          <mxGeometry x="1092" y="120" width="80" height="80" as="geometry" />
        </mxCell>
        <mxCell id="vhvZTh_FQUSVOUHBl7UA-11" value="K" style="ellipse;whiteSpace=wrap;html=1;aspect=fixed;" vertex="1" parent="1">
          <mxGeometry x="1212" y="120" width="80" height="80" as="geometry" />
        </mxCell>
        <mxCell id="vhvZTh_FQUSVOUHBl7UA-12" value="P" style="ellipse;whiteSpace=wrap;html=1;aspect=fixed;" vertex="1" parent="1">
          <mxGeometry x="1332" y="120" width="80" height="80" as="geometry" />
        </mxCell>
        <mxCell id="vhvZTh_FQUSVOUHBl7UA-13" value="M" style="ellipse;whiteSpace=wrap;html=1;aspect=fixed;" vertex="1" parent="1">
          <mxGeometry x="1452" y="120" width="80" height="80" as="geometry" />
        </mxCell>
        <mxCell id="vhvZTh_FQUSVOUHBl7UA-14" value="N" style="ellipse;whiteSpace=wrap;html=1;aspect=fixed;" vertex="1" parent="1">
          <mxGeometry x="1562" y="120" width="80" height="80" as="geometry" />
        </mxCell>
        <mxCell id="vhvZTh_FQUSVOUHBl7UA-36" value="&lt;font style=&quot;font-size: 24px;&quot;&gt;Initial status:&amp;nbsp;&lt;/font&gt;&lt;font style=&quot;font-size: 24px;&quot;&gt;The self-loop arrow when the parent of the vertex is its own is omitted here.&lt;/font&gt;" style="text;html=1;strokeColor=none;fillColor=none;align=center;verticalAlign=middle;whiteSpace=wrap;rounded=0;" vertex="1" parent="1">
          <mxGeometry x="81" y="40" width="1389" height="30" as="geometry" />
        </mxCell>
        <mxCell id="vhvZTh_FQUSVOUHBl7UA-51" value="A" style="ellipse;whiteSpace=wrap;html=1;aspect=fixed;" vertex="1" parent="1">
          <mxGeometry x="12" y="310" width="80" height="80" as="geometry" />
        </mxCell>
        <mxCell id="vhvZTh_FQUSVOUHBl7UA-52" value="B" style="ellipse;whiteSpace=wrap;html=1;aspect=fixed;" vertex="1" parent="1">
          <mxGeometry x="132" y="310" width="80" height="80" as="geometry" />
        </mxCell>
        <mxCell id="vhvZTh_FQUSVOUHBl7UA-53" value="C" style="ellipse;whiteSpace=wrap;html=1;aspect=fixed;" vertex="1" parent="1">
          <mxGeometry x="252" y="310" width="80" height="80" as="geometry" />
        </mxCell>
        <mxCell id="vhvZTh_FQUSVOUHBl7UA-54" value="D" style="ellipse;whiteSpace=wrap;html=1;aspect=fixed;" vertex="1" parent="1">
          <mxGeometry x="372" y="310" width="80" height="80" as="geometry" />
        </mxCell>
        <mxCell id="vhvZTh_FQUSVOUHBl7UA-55" value="E" style="ellipse;whiteSpace=wrap;html=1;aspect=fixed;" vertex="1" parent="1">
          <mxGeometry x="492" y="310" width="80" height="80" as="geometry" />
        </mxCell>
        <mxCell id="vhvZTh_FQUSVOUHBl7UA-56" value="F" style="ellipse;whiteSpace=wrap;html=1;aspect=fixed;" vertex="1" parent="1">
          <mxGeometry x="612" y="310" width="80" height="80" as="geometry" />
        </mxCell>
        <mxCell id="vhvZTh_FQUSVOUHBl7UA-57" value="G" style="ellipse;whiteSpace=wrap;html=1;aspect=fixed;" vertex="1" parent="1">
          <mxGeometry x="732" y="310" width="80" height="80" as="geometry" />
        </mxCell>
        <mxCell id="vhvZTh_FQUSVOUHBl7UA-58" value="H" style="ellipse;whiteSpace=wrap;html=1;aspect=fixed;" vertex="1" parent="1">
          <mxGeometry x="852" y="310" width="80" height="80" as="geometry" />
        </mxCell>
        <mxCell id="vhvZTh_FQUSVOUHBl7UA-59" value="I" style="ellipse;whiteSpace=wrap;html=1;aspect=fixed;" vertex="1" parent="1">
          <mxGeometry x="972" y="310" width="80" height="80" as="geometry" />
        </mxCell>
        <mxCell id="vhvZTh_FQUSVOUHBl7UA-60" value="J" style="ellipse;whiteSpace=wrap;html=1;aspect=fixed;" vertex="1" parent="1">
          <mxGeometry x="1092" y="310" width="80" height="80" as="geometry" />
        </mxCell>
        <mxCell id="vhvZTh_FQUSVOUHBl7UA-61" value="K" style="ellipse;whiteSpace=wrap;html=1;aspect=fixed;" vertex="1" parent="1">
          <mxGeometry x="1212" y="310" width="80" height="80" as="geometry" />
        </mxCell>
        <mxCell id="vhvZTh_FQUSVOUHBl7UA-62" value="P" style="ellipse;whiteSpace=wrap;html=1;aspect=fixed;" vertex="1" parent="1">
          <mxGeometry x="1332" y="310" width="80" height="80" as="geometry" />
        </mxCell>
        <mxCell id="vhvZTh_FQUSVOUHBl7UA-66" style="edgeStyle=orthogonalEdgeStyle;rounded=0;orthogonalLoop=1;jettySize=auto;html=1;exitX=0.5;exitY=0;exitDx=0;exitDy=0;entryX=0.5;entryY=1;entryDx=0;entryDy=0;" edge="1" parent="1" source="vhvZTh_FQUSVOUHBl7UA-63" target="vhvZTh_FQUSVOUHBl7UA-62">
          <mxGeometry relative="1" as="geometry" />
        </mxCell>
        <mxCell id="vhvZTh_FQUSVOUHBl7UA-63" value="M" style="ellipse;whiteSpace=wrap;html=1;aspect=fixed;" vertex="1" parent="1">
          <mxGeometry x="1332" y="450" width="80" height="80" as="geometry" />
        </mxCell>
        <mxCell id="vhvZTh_FQUSVOUHBl7UA-64" value="N" style="ellipse;whiteSpace=wrap;html=1;aspect=fixed;" vertex="1" parent="1">
          <mxGeometry x="1562" y="310" width="80" height="80" as="geometry" />
        </mxCell>
        <mxCell id="vhvZTh_FQUSVOUHBl7UA-65" value="&lt;span style=&quot;font-size: 24px;&quot;&gt;Edge 1: M-P&lt;/span&gt;" style="text;html=1;strokeColor=none;fillColor=none;align=center;verticalAlign=middle;whiteSpace=wrap;rounded=0;" vertex="1" parent="1">
          <mxGeometry x="77.5" y="250" width="1389" height="30" as="geometry" />
        </mxCell>
        <mxCell id="vhvZTh_FQUSVOUHBl7UA-67" value="A" style="ellipse;whiteSpace=wrap;html=1;aspect=fixed;" vertex="1" parent="1">
          <mxGeometry x="12" y="580" width="80" height="80" as="geometry" />
        </mxCell>
        <mxCell id="vhvZTh_FQUSVOUHBl7UA-68" value="B" style="ellipse;whiteSpace=wrap;html=1;aspect=fixed;" vertex="1" parent="1">
          <mxGeometry x="132" y="580" width="80" height="80" as="geometry" />
        </mxCell>
        <mxCell id="vhvZTh_FQUSVOUHBl7UA-69" value="C" style="ellipse;whiteSpace=wrap;html=1;aspect=fixed;" vertex="1" parent="1">
          <mxGeometry x="252" y="580" width="80" height="80" as="geometry" />
        </mxCell>
        <mxCell id="vhvZTh_FQUSVOUHBl7UA-70" value="D" style="ellipse;whiteSpace=wrap;html=1;aspect=fixed;" vertex="1" parent="1">
          <mxGeometry x="372" y="580" width="80" height="80" as="geometry" />
        </mxCell>
        <mxCell id="vhvZTh_FQUSVOUHBl7UA-71" value="E" style="ellipse;whiteSpace=wrap;html=1;aspect=fixed;" vertex="1" parent="1">
          <mxGeometry x="492" y="580" width="80" height="80" as="geometry" />
        </mxCell>
        <mxCell id="vhvZTh_FQUSVOUHBl7UA-72" value="F" style="ellipse;whiteSpace=wrap;html=1;aspect=fixed;" vertex="1" parent="1">
          <mxGeometry x="612" y="580" width="80" height="80" as="geometry" />
        </mxCell>
        <mxCell id="vhvZTh_FQUSVOUHBl7UA-73" value="G" style="ellipse;whiteSpace=wrap;html=1;aspect=fixed;" vertex="1" parent="1">
          <mxGeometry x="732" y="580" width="80" height="80" as="geometry" />
        </mxCell>
        <mxCell id="vhvZTh_FQUSVOUHBl7UA-74" value="H" style="ellipse;whiteSpace=wrap;html=1;aspect=fixed;" vertex="1" parent="1">
          <mxGeometry x="852" y="580" width="80" height="80" as="geometry" />
        </mxCell>
        <mxCell id="vhvZTh_FQUSVOUHBl7UA-75" value="I" style="ellipse;whiteSpace=wrap;html=1;aspect=fixed;" vertex="1" parent="1">
          <mxGeometry x="972" y="580" width="80" height="80" as="geometry" />
        </mxCell>
        <mxCell id="vhvZTh_FQUSVOUHBl7UA-76" value="J" style="ellipse;whiteSpace=wrap;html=1;aspect=fixed;" vertex="1" parent="1">
          <mxGeometry x="1092" y="580" width="80" height="80" as="geometry" />
        </mxCell>
        <mxCell id="vhvZTh_FQUSVOUHBl7UA-77" value="K" style="ellipse;whiteSpace=wrap;html=1;aspect=fixed;" vertex="1" parent="1">
          <mxGeometry x="1212" y="580" width="80" height="80" as="geometry" />
        </mxCell>
        <mxCell id="vhvZTh_FQUSVOUHBl7UA-78" value="P" style="ellipse;whiteSpace=wrap;html=1;aspect=fixed;" vertex="1" parent="1">
          <mxGeometry x="1332" y="580" width="80" height="80" as="geometry" />
        </mxCell>
        <mxCell id="vhvZTh_FQUSVOUHBl7UA-79" style="edgeStyle=orthogonalEdgeStyle;rounded=0;orthogonalLoop=1;jettySize=auto;html=1;exitX=0.5;exitY=0;exitDx=0;exitDy=0;entryX=0.5;entryY=1;entryDx=0;entryDy=0;" edge="1" parent="1" source="vhvZTh_FQUSVOUHBl7UA-80" target="vhvZTh_FQUSVOUHBl7UA-78">
          <mxGeometry relative="1" as="geometry" />
        </mxCell>
        <mxCell id="vhvZTh_FQUSVOUHBl7UA-80" value="M" style="ellipse;whiteSpace=wrap;html=1;aspect=fixed;" vertex="1" parent="1">
          <mxGeometry x="1332" y="720" width="80" height="80" as="geometry" />
        </mxCell>
        <mxCell id="vhvZTh_FQUSVOUHBl7UA-83" style="edgeStyle=orthogonalEdgeStyle;rounded=0;orthogonalLoop=1;jettySize=auto;html=1;exitX=0.5;exitY=0;exitDx=0;exitDy=0;entryX=0.5;entryY=1;entryDx=0;entryDy=0;" edge="1" parent="1" source="vhvZTh_FQUSVOUHBl7UA-81" target="vhvZTh_FQUSVOUHBl7UA-78">
          <mxGeometry relative="1" as="geometry" />
        </mxCell>
        <mxCell id="vhvZTh_FQUSVOUHBl7UA-81" value="N" style="ellipse;whiteSpace=wrap;html=1;aspect=fixed;" vertex="1" parent="1">
          <mxGeometry x="1466.5" y="720" width="80" height="80" as="geometry" />
        </mxCell>
        <mxCell id="vhvZTh_FQUSVOUHBl7UA-82" value="&lt;span style=&quot;font-size: 24px;&quot;&gt;Edge 2: P-N&lt;/span&gt;" style="text;html=1;strokeColor=none;fillColor=none;align=center;verticalAlign=middle;whiteSpace=wrap;rounded=0;" vertex="1" parent="1">
          <mxGeometry x="77.5" y="520" width="1389" height="30" as="geometry" />
        </mxCell>
        <mxCell id="vhvZTh_FQUSVOUHBl7UA-101" value="A" style="ellipse;whiteSpace=wrap;html=1;aspect=fixed;" vertex="1" parent="1">
          <mxGeometry x="12" y="860" width="80" height="80" as="geometry" />
        </mxCell>
        <mxCell id="vhvZTh_FQUSVOUHBl7UA-102" value="B" style="ellipse;whiteSpace=wrap;html=1;aspect=fixed;" vertex="1" parent="1">
          <mxGeometry x="132" y="860" width="80" height="80" as="geometry" />
        </mxCell>
        <mxCell id="vhvZTh_FQUSVOUHBl7UA-103" value="C" style="ellipse;whiteSpace=wrap;html=1;aspect=fixed;" vertex="1" parent="1">
          <mxGeometry x="252" y="860" width="80" height="80" as="geometry" />
        </mxCell>
        <mxCell id="vhvZTh_FQUSVOUHBl7UA-104" value="D" style="ellipse;whiteSpace=wrap;html=1;aspect=fixed;" vertex="1" parent="1">
          <mxGeometry x="372" y="860" width="80" height="80" as="geometry" />
        </mxCell>
        <mxCell id="vhvZTh_FQUSVOUHBl7UA-105" value="E" style="ellipse;whiteSpace=wrap;html=1;aspect=fixed;" vertex="1" parent="1">
          <mxGeometry x="492" y="860" width="80" height="80" as="geometry" />
        </mxCell>
        <mxCell id="vhvZTh_FQUSVOUHBl7UA-106" value="F" style="ellipse;whiteSpace=wrap;html=1;aspect=fixed;" vertex="1" parent="1">
          <mxGeometry x="612" y="860" width="80" height="80" as="geometry" />
        </mxCell>
        <mxCell id="vhvZTh_FQUSVOUHBl7UA-107" value="G" style="ellipse;whiteSpace=wrap;html=1;aspect=fixed;" vertex="1" parent="1">
          <mxGeometry x="732" y="860" width="80" height="80" as="geometry" />
        </mxCell>
        <mxCell id="vhvZTh_FQUSVOUHBl7UA-108" value="H" style="ellipse;whiteSpace=wrap;html=1;aspect=fixed;" vertex="1" parent="1">
          <mxGeometry x="852" y="860" width="80" height="80" as="geometry" />
        </mxCell>
        <mxCell id="vhvZTh_FQUSVOUHBl7UA-109" value="I" style="ellipse;whiteSpace=wrap;html=1;aspect=fixed;" vertex="1" parent="1">
          <mxGeometry x="972" y="860" width="80" height="80" as="geometry" />
        </mxCell>
        <mxCell id="vhvZTh_FQUSVOUHBl7UA-110" value="J" style="ellipse;whiteSpace=wrap;html=1;aspect=fixed;" vertex="1" parent="1">
          <mxGeometry x="1092" y="860" width="80" height="80" as="geometry" />
        </mxCell>
        <mxCell id="vhvZTh_FQUSVOUHBl7UA-111" value="K" style="ellipse;whiteSpace=wrap;html=1;aspect=fixed;" vertex="1" parent="1">
          <mxGeometry x="1212" y="860" width="80" height="80" as="geometry" />
        </mxCell>
        <mxCell id="vhvZTh_FQUSVOUHBl7UA-112" value="P" style="ellipse;whiteSpace=wrap;html=1;aspect=fixed;" vertex="1" parent="1">
          <mxGeometry x="1332" y="860" width="80" height="80" as="geometry" />
        </mxCell>
        <mxCell id="vhvZTh_FQUSVOUHBl7UA-113" style="edgeStyle=orthogonalEdgeStyle;rounded=0;orthogonalLoop=1;jettySize=auto;html=1;exitX=0.5;exitY=0;exitDx=0;exitDy=0;entryX=0.5;entryY=1;entryDx=0;entryDy=0;" edge="1" parent="1" source="vhvZTh_FQUSVOUHBl7UA-114" target="vhvZTh_FQUSVOUHBl7UA-112">
          <mxGeometry relative="1" as="geometry" />
        </mxCell>
        <mxCell id="vhvZTh_FQUSVOUHBl7UA-114" value="M" style="ellipse;whiteSpace=wrap;html=1;aspect=fixed;" vertex="1" parent="1">
          <mxGeometry x="1332" y="1000" width="80" height="80" as="geometry" />
        </mxCell>
        <mxCell id="vhvZTh_FQUSVOUHBl7UA-115" style="edgeStyle=orthogonalEdgeStyle;rounded=0;orthogonalLoop=1;jettySize=auto;html=1;exitX=0.5;exitY=0;exitDx=0;exitDy=0;entryX=0.5;entryY=1;entryDx=0;entryDy=0;" edge="1" parent="1" source="vhvZTh_FQUSVOUHBl7UA-116" target="vhvZTh_FQUSVOUHBl7UA-112">
          <mxGeometry relative="1" as="geometry" />
        </mxCell>
        <mxCell id="vhvZTh_FQUSVOUHBl7UA-116" value="N" style="ellipse;whiteSpace=wrap;html=1;aspect=fixed;" vertex="1" parent="1">
          <mxGeometry x="1466.5" y="1000" width="80" height="80" as="geometry" />
        </mxCell>
        <mxCell id="vhvZTh_FQUSVOUHBl7UA-117" value="&lt;span style=&quot;font-size: 24px;&quot;&gt;Edge 3: M-N&lt;/span&gt;" style="text;html=1;strokeColor=none;fillColor=none;align=center;verticalAlign=middle;whiteSpace=wrap;rounded=0;" vertex="1" parent="1">
          <mxGeometry x="77.5" y="800" width="1389" height="30" as="geometry" />
        </mxCell>
        <mxCell id="vhvZTh_FQUSVOUHBl7UA-118" value="A" style="ellipse;whiteSpace=wrap;html=1;aspect=fixed;" vertex="1" parent="1">
          <mxGeometry x="12" y="1140" width="80" height="80" as="geometry" />
        </mxCell>
        <mxCell id="vhvZTh_FQUSVOUHBl7UA-119" value="B" style="ellipse;whiteSpace=wrap;html=1;aspect=fixed;" vertex="1" parent="1">
          <mxGeometry x="132" y="1140" width="80" height="80" as="geometry" />
        </mxCell>
        <mxCell id="vhvZTh_FQUSVOUHBl7UA-120" value="C" style="ellipse;whiteSpace=wrap;html=1;aspect=fixed;" vertex="1" parent="1">
          <mxGeometry x="252" y="1140" width="80" height="80" as="geometry" />
        </mxCell>
        <mxCell id="vhvZTh_FQUSVOUHBl7UA-121" value="D" style="ellipse;whiteSpace=wrap;html=1;aspect=fixed;" vertex="1" parent="1">
          <mxGeometry x="372" y="1140" width="80" height="80" as="geometry" />
        </mxCell>
        <mxCell id="vhvZTh_FQUSVOUHBl7UA-122" value="E" style="ellipse;whiteSpace=wrap;html=1;aspect=fixed;" vertex="1" parent="1">
          <mxGeometry x="492" y="1140" width="80" height="80" as="geometry" />
        </mxCell>
        <mxCell id="vhvZTh_FQUSVOUHBl7UA-123" value="F" style="ellipse;whiteSpace=wrap;html=1;aspect=fixed;" vertex="1" parent="1">
          <mxGeometry x="612" y="1140" width="80" height="80" as="geometry" />
        </mxCell>
        <mxCell id="vhvZTh_FQUSVOUHBl7UA-124" value="G" style="ellipse;whiteSpace=wrap;html=1;aspect=fixed;" vertex="1" parent="1">
          <mxGeometry x="732" y="1140" width="80" height="80" as="geometry" />
        </mxCell>
        <mxCell id="vhvZTh_FQUSVOUHBl7UA-125" value="H" style="ellipse;whiteSpace=wrap;html=1;aspect=fixed;" vertex="1" parent="1">
          <mxGeometry x="852" y="1140" width="80" height="80" as="geometry" />
        </mxCell>
        <mxCell id="vhvZTh_FQUSVOUHBl7UA-135" style="edgeStyle=orthogonalEdgeStyle;rounded=0;orthogonalLoop=1;jettySize=auto;html=1;exitX=0.5;exitY=0;exitDx=0;exitDy=0;entryX=0.5;entryY=1;entryDx=0;entryDy=0;" edge="1" parent="1" source="vhvZTh_FQUSVOUHBl7UA-126" target="vhvZTh_FQUSVOUHBl7UA-118">
          <mxGeometry relative="1" as="geometry" />
        </mxCell>
        <mxCell id="vhvZTh_FQUSVOUHBl7UA-126" value="I" style="ellipse;whiteSpace=wrap;html=1;aspect=fixed;" vertex="1" parent="1">
          <mxGeometry x="12" y="1280" width="80" height="80" as="geometry" />
        </mxCell>
        <mxCell id="vhvZTh_FQUSVOUHBl7UA-127" value="J" style="ellipse;whiteSpace=wrap;html=1;aspect=fixed;" vertex="1" parent="1">
          <mxGeometry x="1092" y="1140" width="80" height="80" as="geometry" />
        </mxCell>
        <mxCell id="vhvZTh_FQUSVOUHBl7UA-128" value="K" style="ellipse;whiteSpace=wrap;html=1;aspect=fixed;" vertex="1" parent="1">
          <mxGeometry x="1212" y="1140" width="80" height="80" as="geometry" />
        </mxCell>
        <mxCell id="vhvZTh_FQUSVOUHBl7UA-129" value="P" style="ellipse;whiteSpace=wrap;html=1;aspect=fixed;" vertex="1" parent="1">
          <mxGeometry x="1332" y="1140" width="80" height="80" as="geometry" />
        </mxCell>
        <mxCell id="vhvZTh_FQUSVOUHBl7UA-130" style="edgeStyle=orthogonalEdgeStyle;rounded=0;orthogonalLoop=1;jettySize=auto;html=1;exitX=0.5;exitY=0;exitDx=0;exitDy=0;entryX=0.5;entryY=1;entryDx=0;entryDy=0;" edge="1" parent="1" source="vhvZTh_FQUSVOUHBl7UA-131" target="vhvZTh_FQUSVOUHBl7UA-129">
          <mxGeometry relative="1" as="geometry" />
        </mxCell>
        <mxCell id="vhvZTh_FQUSVOUHBl7UA-131" value="M" style="ellipse;whiteSpace=wrap;html=1;aspect=fixed;" vertex="1" parent="1">
          <mxGeometry x="1332" y="1280" width="80" height="80" as="geometry" />
        </mxCell>
        <mxCell id="vhvZTh_FQUSVOUHBl7UA-132" style="edgeStyle=orthogonalEdgeStyle;rounded=0;orthogonalLoop=1;jettySize=auto;html=1;exitX=0.5;exitY=0;exitDx=0;exitDy=0;entryX=0.5;entryY=1;entryDx=0;entryDy=0;" edge="1" parent="1" source="vhvZTh_FQUSVOUHBl7UA-133" target="vhvZTh_FQUSVOUHBl7UA-129">
          <mxGeometry relative="1" as="geometry" />
        </mxCell>
        <mxCell id="vhvZTh_FQUSVOUHBl7UA-133" value="N" style="ellipse;whiteSpace=wrap;html=1;aspect=fixed;" vertex="1" parent="1">
          <mxGeometry x="1466.5" y="1280" width="80" height="80" as="geometry" />
        </mxCell>
        <mxCell id="vhvZTh_FQUSVOUHBl7UA-134" value="&lt;span style=&quot;font-size: 24px;&quot;&gt;Edge 4: I-A&lt;/span&gt;" style="text;html=1;strokeColor=none;fillColor=none;align=center;verticalAlign=middle;whiteSpace=wrap;rounded=0;" vertex="1" parent="1">
          <mxGeometry x="77.5" y="1080" width="1389" height="30" as="geometry" />
        </mxCell>
        <mxCell id="vhvZTh_FQUSVOUHBl7UA-136" value="A" style="ellipse;whiteSpace=wrap;html=1;aspect=fixed;" vertex="1" parent="1">
          <mxGeometry x="8.25" y="1420" width="80" height="80" as="geometry" />
        </mxCell>
        <mxCell id="vhvZTh_FQUSVOUHBl7UA-137" value="B" style="ellipse;whiteSpace=wrap;html=1;aspect=fixed;" vertex="1" parent="1">
          <mxGeometry x="128.25" y="1420" width="80" height="80" as="geometry" />
        </mxCell>
        <mxCell id="vhvZTh_FQUSVOUHBl7UA-156" style="edgeStyle=orthogonalEdgeStyle;rounded=0;orthogonalLoop=1;jettySize=auto;html=1;exitX=0.5;exitY=0;exitDx=0;exitDy=0;entryX=0.5;entryY=1;entryDx=0;entryDy=0;" edge="1" parent="1" source="vhvZTh_FQUSVOUHBl7UA-138" target="vhvZTh_FQUSVOUHBl7UA-136">
          <mxGeometry relative="1" as="geometry" />
        </mxCell>
        <mxCell id="vhvZTh_FQUSVOUHBl7UA-138" value="C" style="ellipse;whiteSpace=wrap;html=1;aspect=fixed;" vertex="1" parent="1">
          <mxGeometry x="136.25" y="1560" width="80" height="80" as="geometry" />
        </mxCell>
        <mxCell id="vhvZTh_FQUSVOUHBl7UA-139" value="D" style="ellipse;whiteSpace=wrap;html=1;aspect=fixed;" vertex="1" parent="1">
          <mxGeometry x="368.25" y="1420" width="80" height="80" as="geometry" />
        </mxCell>
        <mxCell id="vhvZTh_FQUSVOUHBl7UA-140" value="E" style="ellipse;whiteSpace=wrap;html=1;aspect=fixed;" vertex="1" parent="1">
          <mxGeometry x="488.25" y="1420" width="80" height="80" as="geometry" />
        </mxCell>
        <mxCell id="vhvZTh_FQUSVOUHBl7UA-141" value="F" style="ellipse;whiteSpace=wrap;html=1;aspect=fixed;" vertex="1" parent="1">
          <mxGeometry x="608.25" y="1420" width="80" height="80" as="geometry" />
        </mxCell>
        <mxCell id="vhvZTh_FQUSVOUHBl7UA-142" value="G" style="ellipse;whiteSpace=wrap;html=1;aspect=fixed;" vertex="1" parent="1">
          <mxGeometry x="728.25" y="1420" width="80" height="80" as="geometry" />
        </mxCell>
        <mxCell id="vhvZTh_FQUSVOUHBl7UA-143" value="H" style="ellipse;whiteSpace=wrap;html=1;aspect=fixed;" vertex="1" parent="1">
          <mxGeometry x="848.25" y="1420" width="80" height="80" as="geometry" />
        </mxCell>
        <mxCell id="vhvZTh_FQUSVOUHBl7UA-144" style="edgeStyle=orthogonalEdgeStyle;rounded=0;orthogonalLoop=1;jettySize=auto;html=1;exitX=0.5;exitY=0;exitDx=0;exitDy=0;entryX=0.5;entryY=1;entryDx=0;entryDy=0;" edge="1" parent="1" source="vhvZTh_FQUSVOUHBl7UA-145" target="vhvZTh_FQUSVOUHBl7UA-136">
          <mxGeometry relative="1" as="geometry" />
        </mxCell>
        <mxCell id="vhvZTh_FQUSVOUHBl7UA-145" value="I" style="ellipse;whiteSpace=wrap;html=1;aspect=fixed;" vertex="1" parent="1">
          <mxGeometry x="8.25" y="1560" width="80" height="80" as="geometry" />
        </mxCell>
        <mxCell id="vhvZTh_FQUSVOUHBl7UA-146" value="J" style="ellipse;whiteSpace=wrap;html=1;aspect=fixed;" vertex="1" parent="1">
          <mxGeometry x="1088.25" y="1420" width="80" height="80" as="geometry" />
        </mxCell>
        <mxCell id="vhvZTh_FQUSVOUHBl7UA-147" value="K" style="ellipse;whiteSpace=wrap;html=1;aspect=fixed;" vertex="1" parent="1">
          <mxGeometry x="1208.25" y="1420" width="80" height="80" as="geometry" />
        </mxCell>
        <mxCell id="vhvZTh_FQUSVOUHBl7UA-148" value="P" style="ellipse;whiteSpace=wrap;html=1;aspect=fixed;" vertex="1" parent="1">
          <mxGeometry x="1328.25" y="1420" width="80" height="80" as="geometry" />
        </mxCell>
        <mxCell id="vhvZTh_FQUSVOUHBl7UA-149" style="edgeStyle=orthogonalEdgeStyle;rounded=0;orthogonalLoop=1;jettySize=auto;html=1;exitX=0.5;exitY=0;exitDx=0;exitDy=0;entryX=0.5;entryY=1;entryDx=0;entryDy=0;" edge="1" parent="1" source="vhvZTh_FQUSVOUHBl7UA-150" target="vhvZTh_FQUSVOUHBl7UA-148">
          <mxGeometry relative="1" as="geometry" />
        </mxCell>
        <mxCell id="vhvZTh_FQUSVOUHBl7UA-150" value="M" style="ellipse;whiteSpace=wrap;html=1;aspect=fixed;" vertex="1" parent="1">
          <mxGeometry x="1328.25" y="1560" width="80" height="80" as="geometry" />
        </mxCell>
        <mxCell id="vhvZTh_FQUSVOUHBl7UA-151" style="edgeStyle=orthogonalEdgeStyle;rounded=0;orthogonalLoop=1;jettySize=auto;html=1;exitX=0.5;exitY=0;exitDx=0;exitDy=0;entryX=0.5;entryY=1;entryDx=0;entryDy=0;" edge="1" parent="1" source="vhvZTh_FQUSVOUHBl7UA-152" target="vhvZTh_FQUSVOUHBl7UA-148">
          <mxGeometry relative="1" as="geometry" />
        </mxCell>
        <mxCell id="vhvZTh_FQUSVOUHBl7UA-152" value="N" style="ellipse;whiteSpace=wrap;html=1;aspect=fixed;" vertex="1" parent="1">
          <mxGeometry x="1462.75" y="1560" width="80" height="80" as="geometry" />
        </mxCell>
        <mxCell id="vhvZTh_FQUSVOUHBl7UA-153" value="&lt;span style=&quot;font-size: 24px;&quot;&gt;Edge 5: I-C&lt;/span&gt;" style="text;html=1;strokeColor=none;fillColor=none;align=center;verticalAlign=middle;whiteSpace=wrap;rounded=0;" vertex="1" parent="1">
          <mxGeometry x="73.75" y="1360" width="1389" height="30" as="geometry" />
        </mxCell>
        <mxCell id="vhvZTh_FQUSVOUHBl7UA-157" value="A" style="ellipse;whiteSpace=wrap;html=1;aspect=fixed;" vertex="1" parent="1">
          <mxGeometry x="8.25" y="1720" width="80" height="80" as="geometry" />
        </mxCell>
        <mxCell id="vhvZTh_FQUSVOUHBl7UA-158" value="B" style="ellipse;whiteSpace=wrap;html=1;aspect=fixed;" vertex="1" parent="1">
          <mxGeometry x="128.25" y="1720" width="80" height="80" as="geometry" />
        </mxCell>
        <mxCell id="vhvZTh_FQUSVOUHBl7UA-159" style="edgeStyle=orthogonalEdgeStyle;rounded=0;orthogonalLoop=1;jettySize=auto;html=1;exitX=0.5;exitY=0;exitDx=0;exitDy=0;entryX=0.5;entryY=1;entryDx=0;entryDy=0;" edge="1" parent="1" source="vhvZTh_FQUSVOUHBl7UA-160" target="vhvZTh_FQUSVOUHBl7UA-157">
          <mxGeometry relative="1" as="geometry" />
        </mxCell>
        <mxCell id="vhvZTh_FQUSVOUHBl7UA-160" value="C" style="ellipse;whiteSpace=wrap;html=1;aspect=fixed;" vertex="1" parent="1">
          <mxGeometry x="136.25" y="1860" width="80" height="80" as="geometry" />
        </mxCell>
        <mxCell id="vhvZTh_FQUSVOUHBl7UA-161" value="D" style="ellipse;whiteSpace=wrap;html=1;aspect=fixed;" vertex="1" parent="1">
          <mxGeometry x="368.25" y="1720" width="80" height="80" as="geometry" />
        </mxCell>
        <mxCell id="vhvZTh_FQUSVOUHBl7UA-162" value="E" style="ellipse;whiteSpace=wrap;html=1;aspect=fixed;" vertex="1" parent="1">
          <mxGeometry x="488.25" y="1720" width="80" height="80" as="geometry" />
        </mxCell>
        <mxCell id="vhvZTh_FQUSVOUHBl7UA-163" value="F" style="ellipse;whiteSpace=wrap;html=1;aspect=fixed;" vertex="1" parent="1">
          <mxGeometry x="608.25" y="1720" width="80" height="80" as="geometry" />
        </mxCell>
        <mxCell id="vhvZTh_FQUSVOUHBl7UA-176" style="edgeStyle=orthogonalEdgeStyle;rounded=0;orthogonalLoop=1;jettySize=auto;html=1;exitX=0.5;exitY=0;exitDx=0;exitDy=0;entryX=0.5;entryY=1;entryDx=0;entryDy=0;" edge="1" parent="1" source="vhvZTh_FQUSVOUHBl7UA-164" target="vhvZTh_FQUSVOUHBl7UA-157">
          <mxGeometry relative="1" as="geometry" />
        </mxCell>
        <mxCell id="vhvZTh_FQUSVOUHBl7UA-164" value="G" style="ellipse;whiteSpace=wrap;html=1;aspect=fixed;" vertex="1" parent="1">
          <mxGeometry x="256.25" y="1860" width="80" height="80" as="geometry" />
        </mxCell>
        <mxCell id="vhvZTh_FQUSVOUHBl7UA-165" value="H" style="ellipse;whiteSpace=wrap;html=1;aspect=fixed;" vertex="1" parent="1">
          <mxGeometry x="848.25" y="1720" width="80" height="80" as="geometry" />
        </mxCell>
        <mxCell id="vhvZTh_FQUSVOUHBl7UA-166" style="edgeStyle=orthogonalEdgeStyle;rounded=0;orthogonalLoop=1;jettySize=auto;html=1;exitX=0.5;exitY=0;exitDx=0;exitDy=0;entryX=0.5;entryY=1;entryDx=0;entryDy=0;" edge="1" parent="1" source="vhvZTh_FQUSVOUHBl7UA-167" target="vhvZTh_FQUSVOUHBl7UA-157">
          <mxGeometry relative="1" as="geometry" />
        </mxCell>
        <mxCell id="vhvZTh_FQUSVOUHBl7UA-167" value="I" style="ellipse;whiteSpace=wrap;html=1;aspect=fixed;" vertex="1" parent="1">
          <mxGeometry x="8.25" y="1860" width="80" height="80" as="geometry" />
        </mxCell>
        <mxCell id="vhvZTh_FQUSVOUHBl7UA-168" value="J" style="ellipse;whiteSpace=wrap;html=1;aspect=fixed;" vertex="1" parent="1">
          <mxGeometry x="1088.25" y="1720" width="80" height="80" as="geometry" />
        </mxCell>
        <mxCell id="vhvZTh_FQUSVOUHBl7UA-169" value="K" style="ellipse;whiteSpace=wrap;html=1;aspect=fixed;" vertex="1" parent="1">
          <mxGeometry x="1208.25" y="1720" width="80" height="80" as="geometry" />
        </mxCell>
        <mxCell id="vhvZTh_FQUSVOUHBl7UA-170" value="P" style="ellipse;whiteSpace=wrap;html=1;aspect=fixed;" vertex="1" parent="1">
          <mxGeometry x="1328.25" y="1720" width="80" height="80" as="geometry" />
        </mxCell>
        <mxCell id="vhvZTh_FQUSVOUHBl7UA-171" style="edgeStyle=orthogonalEdgeStyle;rounded=0;orthogonalLoop=1;jettySize=auto;html=1;exitX=0.5;exitY=0;exitDx=0;exitDy=0;entryX=0.5;entryY=1;entryDx=0;entryDy=0;" edge="1" parent="1" source="vhvZTh_FQUSVOUHBl7UA-172" target="vhvZTh_FQUSVOUHBl7UA-170">
          <mxGeometry relative="1" as="geometry" />
        </mxCell>
        <mxCell id="vhvZTh_FQUSVOUHBl7UA-172" value="M" style="ellipse;whiteSpace=wrap;html=1;aspect=fixed;" vertex="1" parent="1">
          <mxGeometry x="1328.25" y="1860" width="80" height="80" as="geometry" />
        </mxCell>
        <mxCell id="vhvZTh_FQUSVOUHBl7UA-173" style="edgeStyle=orthogonalEdgeStyle;rounded=0;orthogonalLoop=1;jettySize=auto;html=1;exitX=0.5;exitY=0;exitDx=0;exitDy=0;entryX=0.5;entryY=1;entryDx=0;entryDy=0;" edge="1" parent="1" source="vhvZTh_FQUSVOUHBl7UA-174" target="vhvZTh_FQUSVOUHBl7UA-170">
          <mxGeometry relative="1" as="geometry" />
        </mxCell>
        <mxCell id="vhvZTh_FQUSVOUHBl7UA-174" value="N" style="ellipse;whiteSpace=wrap;html=1;aspect=fixed;" vertex="1" parent="1">
          <mxGeometry x="1462.75" y="1860" width="80" height="80" as="geometry" />
        </mxCell>
        <mxCell id="vhvZTh_FQUSVOUHBl7UA-175" value="&lt;span style=&quot;font-size: 24px;&quot;&gt;Edge 6: I-G&lt;/span&gt;" style="text;html=1;strokeColor=none;fillColor=none;align=center;verticalAlign=middle;whiteSpace=wrap;rounded=0;" vertex="1" parent="1">
          <mxGeometry x="73.75" y="1660" width="1389" height="30" as="geometry" />
        </mxCell>
        <mxCell id="vhvZTh_FQUSVOUHBl7UA-177" value="A" style="ellipse;whiteSpace=wrap;html=1;aspect=fixed;" vertex="1" parent="1">
          <mxGeometry x="8.25" y="2020" width="80" height="80" as="geometry" />
        </mxCell>
        <mxCell id="vhvZTh_FQUSVOUHBl7UA-178" value="B" style="ellipse;whiteSpace=wrap;html=1;aspect=fixed;" vertex="1" parent="1">
          <mxGeometry x="128.25" y="2020" width="80" height="80" as="geometry" />
        </mxCell>
        <mxCell id="vhvZTh_FQUSVOUHBl7UA-179" style="edgeStyle=orthogonalEdgeStyle;rounded=0;orthogonalLoop=1;jettySize=auto;html=1;exitX=0.5;exitY=0;exitDx=0;exitDy=0;entryX=0.5;entryY=1;entryDx=0;entryDy=0;" edge="1" parent="1" source="vhvZTh_FQUSVOUHBl7UA-180" target="vhvZTh_FQUSVOUHBl7UA-177">
          <mxGeometry relative="1" as="geometry" />
        </mxCell>
        <mxCell id="vhvZTh_FQUSVOUHBl7UA-180" value="C" style="ellipse;whiteSpace=wrap;html=1;aspect=fixed;" vertex="1" parent="1">
          <mxGeometry x="136.25" y="2160" width="80" height="80" as="geometry" />
        </mxCell>
        <mxCell id="vhvZTh_FQUSVOUHBl7UA-181" value="D" style="ellipse;whiteSpace=wrap;html=1;aspect=fixed;" vertex="1" parent="1">
          <mxGeometry x="368.25" y="2020" width="80" height="80" as="geometry" />
        </mxCell>
        <mxCell id="vhvZTh_FQUSVOUHBl7UA-182" value="E" style="ellipse;whiteSpace=wrap;html=1;aspect=fixed;" vertex="1" parent="1">
          <mxGeometry x="488.25" y="2020" width="80" height="80" as="geometry" />
        </mxCell>
        <mxCell id="vhvZTh_FQUSVOUHBl7UA-183" value="F" style="ellipse;whiteSpace=wrap;html=1;aspect=fixed;" vertex="1" parent="1">
          <mxGeometry x="608.25" y="2020" width="80" height="80" as="geometry" />
        </mxCell>
        <mxCell id="vhvZTh_FQUSVOUHBl7UA-184" style="edgeStyle=orthogonalEdgeStyle;rounded=0;orthogonalLoop=1;jettySize=auto;html=1;exitX=0.5;exitY=0;exitDx=0;exitDy=0;entryX=0.5;entryY=1;entryDx=0;entryDy=0;" edge="1" parent="1" source="vhvZTh_FQUSVOUHBl7UA-185" target="vhvZTh_FQUSVOUHBl7UA-177">
          <mxGeometry relative="1" as="geometry" />
        </mxCell>
        <mxCell id="vhvZTh_FQUSVOUHBl7UA-185" value="G" style="ellipse;whiteSpace=wrap;html=1;aspect=fixed;" vertex="1" parent="1">
          <mxGeometry x="256.25" y="2160" width="80" height="80" as="geometry" />
        </mxCell>
        <mxCell id="vhvZTh_FQUSVOUHBl7UA-186" value="H" style="ellipse;whiteSpace=wrap;html=1;aspect=fixed;" vertex="1" parent="1">
          <mxGeometry x="848.25" y="2020" width="80" height="80" as="geometry" />
        </mxCell>
        <mxCell id="vhvZTh_FQUSVOUHBl7UA-187" style="edgeStyle=orthogonalEdgeStyle;rounded=0;orthogonalLoop=1;jettySize=auto;html=1;exitX=0.5;exitY=0;exitDx=0;exitDy=0;entryX=0.5;entryY=1;entryDx=0;entryDy=0;" edge="1" parent="1" source="vhvZTh_FQUSVOUHBl7UA-188" target="vhvZTh_FQUSVOUHBl7UA-177">
          <mxGeometry relative="1" as="geometry" />
        </mxCell>
        <mxCell id="vhvZTh_FQUSVOUHBl7UA-188" value="I" style="ellipse;whiteSpace=wrap;html=1;aspect=fixed;" vertex="1" parent="1">
          <mxGeometry x="8.25" y="2160" width="80" height="80" as="geometry" />
        </mxCell>
        <mxCell id="vhvZTh_FQUSVOUHBl7UA-189" value="J" style="ellipse;whiteSpace=wrap;html=1;aspect=fixed;" vertex="1" parent="1">
          <mxGeometry x="1088.25" y="2020" width="80" height="80" as="geometry" />
        </mxCell>
        <mxCell id="vhvZTh_FQUSVOUHBl7UA-190" value="K" style="ellipse;whiteSpace=wrap;html=1;aspect=fixed;" vertex="1" parent="1">
          <mxGeometry x="1208.25" y="2020" width="80" height="80" as="geometry" />
        </mxCell>
        <mxCell id="vhvZTh_FQUSVOUHBl7UA-191" value="P" style="ellipse;whiteSpace=wrap;html=1;aspect=fixed;" vertex="1" parent="1">
          <mxGeometry x="1328.25" y="2020" width="80" height="80" as="geometry" />
        </mxCell>
        <mxCell id="vhvZTh_FQUSVOUHBl7UA-192" style="edgeStyle=orthogonalEdgeStyle;rounded=0;orthogonalLoop=1;jettySize=auto;html=1;exitX=0.5;exitY=0;exitDx=0;exitDy=0;entryX=0.5;entryY=1;entryDx=0;entryDy=0;" edge="1" parent="1" source="vhvZTh_FQUSVOUHBl7UA-193" target="vhvZTh_FQUSVOUHBl7UA-191">
          <mxGeometry relative="1" as="geometry" />
        </mxCell>
        <mxCell id="vhvZTh_FQUSVOUHBl7UA-193" value="M" style="ellipse;whiteSpace=wrap;html=1;aspect=fixed;" vertex="1" parent="1">
          <mxGeometry x="1328.25" y="2160" width="80" height="80" as="geometry" />
        </mxCell>
        <mxCell id="vhvZTh_FQUSVOUHBl7UA-194" style="edgeStyle=orthogonalEdgeStyle;rounded=0;orthogonalLoop=1;jettySize=auto;html=1;exitX=0.5;exitY=0;exitDx=0;exitDy=0;entryX=0.5;entryY=1;entryDx=0;entryDy=0;" edge="1" parent="1" source="vhvZTh_FQUSVOUHBl7UA-195" target="vhvZTh_FQUSVOUHBl7UA-191">
          <mxGeometry relative="1" as="geometry" />
        </mxCell>
        <mxCell id="vhvZTh_FQUSVOUHBl7UA-195" value="N" style="ellipse;whiteSpace=wrap;html=1;aspect=fixed;" vertex="1" parent="1">
          <mxGeometry x="1462.75" y="2160" width="80" height="80" as="geometry" />
        </mxCell>
        <mxCell id="vhvZTh_FQUSVOUHBl7UA-196" value="&lt;span style=&quot;font-size: 24px;&quot;&gt;Edge 7: A-C&lt;/span&gt;" style="text;html=1;strokeColor=none;fillColor=none;align=center;verticalAlign=middle;whiteSpace=wrap;rounded=0;" vertex="1" parent="1">
          <mxGeometry x="73.75" y="1960" width="1389" height="30" as="geometry" />
        </mxCell>
        <mxCell id="vhvZTh_FQUSVOUHBl7UA-217" value="A" style="ellipse;whiteSpace=wrap;html=1;aspect=fixed;" vertex="1" parent="1">
          <mxGeometry x="27.5" y="2410" width="80" height="80" as="geometry" />
        </mxCell>
        <mxCell id="vhvZTh_FQUSVOUHBl7UA-237" style="edgeStyle=orthogonalEdgeStyle;rounded=0;orthogonalLoop=1;jettySize=auto;html=1;exitX=0.5;exitY=0;exitDx=0;exitDy=0;entryX=0.5;entryY=1;entryDx=0;entryDy=0;" edge="1" parent="1" source="vhvZTh_FQUSVOUHBl7UA-218" target="vhvZTh_FQUSVOUHBl7UA-217">
          <mxGeometry relative="1" as="geometry" />
        </mxCell>
        <mxCell id="vhvZTh_FQUSVOUHBl7UA-218" value="B" style="ellipse;whiteSpace=wrap;html=1;aspect=fixed;" vertex="1" parent="1">
          <mxGeometry x="387.5" y="2550" width="80" height="80" as="geometry" />
        </mxCell>
        <mxCell id="vhvZTh_FQUSVOUHBl7UA-219" style="edgeStyle=orthogonalEdgeStyle;rounded=0;orthogonalLoop=1;jettySize=auto;html=1;exitX=0.5;exitY=0;exitDx=0;exitDy=0;entryX=0.5;entryY=1;entryDx=0;entryDy=0;" edge="1" parent="1" source="vhvZTh_FQUSVOUHBl7UA-220" target="vhvZTh_FQUSVOUHBl7UA-217">
          <mxGeometry relative="1" as="geometry" />
        </mxCell>
        <mxCell id="vhvZTh_FQUSVOUHBl7UA-220" value="C" style="ellipse;whiteSpace=wrap;html=1;aspect=fixed;" vertex="1" parent="1">
          <mxGeometry x="155.5" y="2550" width="80" height="80" as="geometry" />
        </mxCell>
        <mxCell id="vhvZTh_FQUSVOUHBl7UA-221" value="D" style="ellipse;whiteSpace=wrap;html=1;aspect=fixed;" vertex="1" parent="1">
          <mxGeometry x="387.5" y="2410" width="80" height="80" as="geometry" />
        </mxCell>
        <mxCell id="vhvZTh_FQUSVOUHBl7UA-222" value="E" style="ellipse;whiteSpace=wrap;html=1;aspect=fixed;" vertex="1" parent="1">
          <mxGeometry x="507.5" y="2410" width="80" height="80" as="geometry" />
        </mxCell>
        <mxCell id="vhvZTh_FQUSVOUHBl7UA-223" value="F" style="ellipse;whiteSpace=wrap;html=1;aspect=fixed;" vertex="1" parent="1">
          <mxGeometry x="627.5" y="2410" width="80" height="80" as="geometry" />
        </mxCell>
        <mxCell id="vhvZTh_FQUSVOUHBl7UA-224" style="edgeStyle=orthogonalEdgeStyle;rounded=0;orthogonalLoop=1;jettySize=auto;html=1;exitX=0.5;exitY=0;exitDx=0;exitDy=0;entryX=0.5;entryY=1;entryDx=0;entryDy=0;" edge="1" parent="1" source="vhvZTh_FQUSVOUHBl7UA-225" target="vhvZTh_FQUSVOUHBl7UA-217">
          <mxGeometry relative="1" as="geometry" />
        </mxCell>
        <mxCell id="vhvZTh_FQUSVOUHBl7UA-225" value="G" style="ellipse;whiteSpace=wrap;html=1;aspect=fixed;" vertex="1" parent="1">
          <mxGeometry x="275.5" y="2550" width="80" height="80" as="geometry" />
        </mxCell>
        <mxCell id="vhvZTh_FQUSVOUHBl7UA-226" value="H" style="ellipse;whiteSpace=wrap;html=1;aspect=fixed;" vertex="1" parent="1">
          <mxGeometry x="867.5" y="2410" width="80" height="80" as="geometry" />
        </mxCell>
        <mxCell id="vhvZTh_FQUSVOUHBl7UA-227" style="edgeStyle=orthogonalEdgeStyle;rounded=0;orthogonalLoop=1;jettySize=auto;html=1;exitX=0.5;exitY=0;exitDx=0;exitDy=0;entryX=0.5;entryY=1;entryDx=0;entryDy=0;" edge="1" parent="1" source="vhvZTh_FQUSVOUHBl7UA-228" target="vhvZTh_FQUSVOUHBl7UA-217">
          <mxGeometry relative="1" as="geometry" />
        </mxCell>
        <mxCell id="vhvZTh_FQUSVOUHBl7UA-228" value="I" style="ellipse;whiteSpace=wrap;html=1;aspect=fixed;" vertex="1" parent="1">
          <mxGeometry x="27.5" y="2550" width="80" height="80" as="geometry" />
        </mxCell>
        <mxCell id="vhvZTh_FQUSVOUHBl7UA-229" value="J" style="ellipse;whiteSpace=wrap;html=1;aspect=fixed;" vertex="1" parent="1">
          <mxGeometry x="1107.5" y="2410" width="80" height="80" as="geometry" />
        </mxCell>
        <mxCell id="vhvZTh_FQUSVOUHBl7UA-230" value="K" style="ellipse;whiteSpace=wrap;html=1;aspect=fixed;" vertex="1" parent="1">
          <mxGeometry x="1227.5" y="2410" width="80" height="80" as="geometry" />
        </mxCell>
        <mxCell id="vhvZTh_FQUSVOUHBl7UA-231" value="P" style="ellipse;whiteSpace=wrap;html=1;aspect=fixed;" vertex="1" parent="1">
          <mxGeometry x="1347.5" y="2410" width="80" height="80" as="geometry" />
        </mxCell>
        <mxCell id="vhvZTh_FQUSVOUHBl7UA-232" style="edgeStyle=orthogonalEdgeStyle;rounded=0;orthogonalLoop=1;jettySize=auto;html=1;exitX=0.5;exitY=0;exitDx=0;exitDy=0;entryX=0.5;entryY=1;entryDx=0;entryDy=0;" edge="1" parent="1" source="vhvZTh_FQUSVOUHBl7UA-233" target="vhvZTh_FQUSVOUHBl7UA-231">
          <mxGeometry relative="1" as="geometry" />
        </mxCell>
        <mxCell id="vhvZTh_FQUSVOUHBl7UA-233" value="M" style="ellipse;whiteSpace=wrap;html=1;aspect=fixed;" vertex="1" parent="1">
          <mxGeometry x="1347.5" y="2550" width="80" height="80" as="geometry" />
        </mxCell>
        <mxCell id="vhvZTh_FQUSVOUHBl7UA-234" style="edgeStyle=orthogonalEdgeStyle;rounded=0;orthogonalLoop=1;jettySize=auto;html=1;exitX=0.5;exitY=0;exitDx=0;exitDy=0;entryX=0.5;entryY=1;entryDx=0;entryDy=0;" edge="1" parent="1" source="vhvZTh_FQUSVOUHBl7UA-235" target="vhvZTh_FQUSVOUHBl7UA-231">
          <mxGeometry relative="1" as="geometry" />
        </mxCell>
        <mxCell id="vhvZTh_FQUSVOUHBl7UA-235" value="N" style="ellipse;whiteSpace=wrap;html=1;aspect=fixed;" vertex="1" parent="1">
          <mxGeometry x="1482" y="2550" width="80" height="80" as="geometry" />
        </mxCell>
        <mxCell id="vhvZTh_FQUSVOUHBl7UA-236" value="&lt;span style=&quot;font-size: 24px;&quot;&gt;Edge 8: A-B&lt;/span&gt;" style="text;html=1;strokeColor=none;fillColor=none;align=center;verticalAlign=middle;whiteSpace=wrap;rounded=0;" vertex="1" parent="1">
          <mxGeometry x="93" y="2350" width="1389" height="30" as="geometry" />
        </mxCell>
        <mxCell id="vhvZTh_FQUSVOUHBl7UA-238" value="A" style="ellipse;whiteSpace=wrap;html=1;aspect=fixed;" vertex="1" parent="1">
          <mxGeometry x="37.5" y="2690" width="80" height="80" as="geometry" />
        </mxCell>
        <mxCell id="vhvZTh_FQUSVOUHBl7UA-239" style="edgeStyle=orthogonalEdgeStyle;rounded=0;orthogonalLoop=1;jettySize=auto;html=1;exitX=0.5;exitY=0;exitDx=0;exitDy=0;entryX=0.5;entryY=1;entryDx=0;entryDy=0;" edge="1" parent="1" source="vhvZTh_FQUSVOUHBl7UA-240" target="vhvZTh_FQUSVOUHBl7UA-238">
          <mxGeometry relative="1" as="geometry" />
        </mxCell>
        <mxCell id="vhvZTh_FQUSVOUHBl7UA-240" value="B" style="ellipse;whiteSpace=wrap;html=1;aspect=fixed;" vertex="1" parent="1">
          <mxGeometry x="397.5" y="2830" width="80" height="80" as="geometry" />
        </mxCell>
        <mxCell id="vhvZTh_FQUSVOUHBl7UA-241" style="edgeStyle=orthogonalEdgeStyle;rounded=0;orthogonalLoop=1;jettySize=auto;html=1;exitX=0.5;exitY=0;exitDx=0;exitDy=0;entryX=0.5;entryY=1;entryDx=0;entryDy=0;" edge="1" parent="1" source="vhvZTh_FQUSVOUHBl7UA-242" target="vhvZTh_FQUSVOUHBl7UA-238">
          <mxGeometry relative="1" as="geometry" />
        </mxCell>
        <mxCell id="vhvZTh_FQUSVOUHBl7UA-242" value="C" style="ellipse;whiteSpace=wrap;html=1;aspect=fixed;" vertex="1" parent="1">
          <mxGeometry x="165.5" y="2830" width="80" height="80" as="geometry" />
        </mxCell>
        <mxCell id="vhvZTh_FQUSVOUHBl7UA-243" value="D" style="ellipse;whiteSpace=wrap;html=1;aspect=fixed;" vertex="1" parent="1">
          <mxGeometry x="397.5" y="2690" width="80" height="80" as="geometry" />
        </mxCell>
        <mxCell id="vhvZTh_FQUSVOUHBl7UA-259" style="edgeStyle=orthogonalEdgeStyle;rounded=0;orthogonalLoop=1;jettySize=auto;html=1;exitX=0.5;exitY=0;exitDx=0;exitDy=0;entryX=0.5;entryY=1;entryDx=0;entryDy=0;" edge="1" parent="1" source="vhvZTh_FQUSVOUHBl7UA-244" target="vhvZTh_FQUSVOUHBl7UA-238">
          <mxGeometry relative="1" as="geometry" />
        </mxCell>
        <mxCell id="vhvZTh_FQUSVOUHBl7UA-244" value="E" style="ellipse;whiteSpace=wrap;html=1;aspect=fixed;" vertex="1" parent="1">
          <mxGeometry x="520" y="2830" width="80" height="80" as="geometry" />
        </mxCell>
        <mxCell id="vhvZTh_FQUSVOUHBl7UA-245" value="F" style="ellipse;whiteSpace=wrap;html=1;aspect=fixed;" vertex="1" parent="1">
          <mxGeometry x="637.5" y="2690" width="80" height="80" as="geometry" />
        </mxCell>
        <mxCell id="vhvZTh_FQUSVOUHBl7UA-246" style="edgeStyle=orthogonalEdgeStyle;rounded=0;orthogonalLoop=1;jettySize=auto;html=1;exitX=0.5;exitY=0;exitDx=0;exitDy=0;entryX=0.5;entryY=1;entryDx=0;entryDy=0;" edge="1" parent="1" source="vhvZTh_FQUSVOUHBl7UA-247" target="vhvZTh_FQUSVOUHBl7UA-238">
          <mxGeometry relative="1" as="geometry" />
        </mxCell>
        <mxCell id="vhvZTh_FQUSVOUHBl7UA-247" value="G" style="ellipse;whiteSpace=wrap;html=1;aspect=fixed;" vertex="1" parent="1">
          <mxGeometry x="285.5" y="2830" width="80" height="80" as="geometry" />
        </mxCell>
        <mxCell id="vhvZTh_FQUSVOUHBl7UA-248" value="H" style="ellipse;whiteSpace=wrap;html=1;aspect=fixed;" vertex="1" parent="1">
          <mxGeometry x="877.5" y="2690" width="80" height="80" as="geometry" />
        </mxCell>
        <mxCell id="vhvZTh_FQUSVOUHBl7UA-249" style="edgeStyle=orthogonalEdgeStyle;rounded=0;orthogonalLoop=1;jettySize=auto;html=1;exitX=0.5;exitY=0;exitDx=0;exitDy=0;entryX=0.5;entryY=1;entryDx=0;entryDy=0;" edge="1" parent="1" source="vhvZTh_FQUSVOUHBl7UA-250" target="vhvZTh_FQUSVOUHBl7UA-238">
          <mxGeometry relative="1" as="geometry" />
        </mxCell>
        <mxCell id="vhvZTh_FQUSVOUHBl7UA-250" value="I" style="ellipse;whiteSpace=wrap;html=1;aspect=fixed;" vertex="1" parent="1">
          <mxGeometry x="37.5" y="2830" width="80" height="80" as="geometry" />
        </mxCell>
        <mxCell id="vhvZTh_FQUSVOUHBl7UA-251" value="J" style="ellipse;whiteSpace=wrap;html=1;aspect=fixed;" vertex="1" parent="1">
          <mxGeometry x="1117.5" y="2690" width="80" height="80" as="geometry" />
        </mxCell>
        <mxCell id="vhvZTh_FQUSVOUHBl7UA-252" value="K" style="ellipse;whiteSpace=wrap;html=1;aspect=fixed;" vertex="1" parent="1">
          <mxGeometry x="1237.5" y="2690" width="80" height="80" as="geometry" />
        </mxCell>
        <mxCell id="vhvZTh_FQUSVOUHBl7UA-253" value="P" style="ellipse;whiteSpace=wrap;html=1;aspect=fixed;" vertex="1" parent="1">
          <mxGeometry x="1357.5" y="2690" width="80" height="80" as="geometry" />
        </mxCell>
        <mxCell id="vhvZTh_FQUSVOUHBl7UA-254" style="edgeStyle=orthogonalEdgeStyle;rounded=0;orthogonalLoop=1;jettySize=auto;html=1;exitX=0.5;exitY=0;exitDx=0;exitDy=0;entryX=0.5;entryY=1;entryDx=0;entryDy=0;" edge="1" parent="1" source="vhvZTh_FQUSVOUHBl7UA-255" target="vhvZTh_FQUSVOUHBl7UA-253">
          <mxGeometry relative="1" as="geometry" />
        </mxCell>
        <mxCell id="vhvZTh_FQUSVOUHBl7UA-255" value="M" style="ellipse;whiteSpace=wrap;html=1;aspect=fixed;" vertex="1" parent="1">
          <mxGeometry x="1357.5" y="2830" width="80" height="80" as="geometry" />
        </mxCell>
        <mxCell id="vhvZTh_FQUSVOUHBl7UA-256" style="edgeStyle=orthogonalEdgeStyle;rounded=0;orthogonalLoop=1;jettySize=auto;html=1;exitX=0.5;exitY=0;exitDx=0;exitDy=0;entryX=0.5;entryY=1;entryDx=0;entryDy=0;" edge="1" parent="1" source="vhvZTh_FQUSVOUHBl7UA-257" target="vhvZTh_FQUSVOUHBl7UA-253">
          <mxGeometry relative="1" as="geometry" />
        </mxCell>
        <mxCell id="vhvZTh_FQUSVOUHBl7UA-257" value="N" style="ellipse;whiteSpace=wrap;html=1;aspect=fixed;" vertex="1" parent="1">
          <mxGeometry x="1492" y="2830" width="80" height="80" as="geometry" />
        </mxCell>
        <mxCell id="vhvZTh_FQUSVOUHBl7UA-258" value="&lt;span style=&quot;font-size: 24px;&quot;&gt;Edge 9: A-E&lt;/span&gt;" style="text;html=1;strokeColor=none;fillColor=none;align=center;verticalAlign=middle;whiteSpace=wrap;rounded=0;" vertex="1" parent="1">
          <mxGeometry x="103" y="2630" width="1389" height="30" as="geometry" />
        </mxCell>
        <mxCell id="vhvZTh_FQUSVOUHBl7UA-260" value="A" style="ellipse;whiteSpace=wrap;html=1;aspect=fixed;" vertex="1" parent="1">
          <mxGeometry x="37.5" y="2980" width="80" height="80" as="geometry" />
        </mxCell>
        <mxCell id="vhvZTh_FQUSVOUHBl7UA-261" style="edgeStyle=orthogonalEdgeStyle;rounded=0;orthogonalLoop=1;jettySize=auto;html=1;exitX=0.5;exitY=0;exitDx=0;exitDy=0;entryX=0.5;entryY=1;entryDx=0;entryDy=0;" edge="1" parent="1" source="vhvZTh_FQUSVOUHBl7UA-262" target="vhvZTh_FQUSVOUHBl7UA-260">
          <mxGeometry relative="1" as="geometry" />
        </mxCell>
        <mxCell id="vhvZTh_FQUSVOUHBl7UA-262" value="B" style="ellipse;whiteSpace=wrap;html=1;aspect=fixed;" vertex="1" parent="1">
          <mxGeometry x="397.5" y="3120" width="80" height="80" as="geometry" />
        </mxCell>
        <mxCell id="vhvZTh_FQUSVOUHBl7UA-263" style="edgeStyle=orthogonalEdgeStyle;rounded=0;orthogonalLoop=1;jettySize=auto;html=1;exitX=0.5;exitY=0;exitDx=0;exitDy=0;entryX=0.5;entryY=1;entryDx=0;entryDy=0;" edge="1" parent="1" source="vhvZTh_FQUSVOUHBl7UA-264" target="vhvZTh_FQUSVOUHBl7UA-260">
          <mxGeometry relative="1" as="geometry" />
        </mxCell>
        <mxCell id="vhvZTh_FQUSVOUHBl7UA-264" value="C" style="ellipse;whiteSpace=wrap;html=1;aspect=fixed;" vertex="1" parent="1">
          <mxGeometry x="165.5" y="3120" width="80" height="80" as="geometry" />
        </mxCell>
        <mxCell id="vhvZTh_FQUSVOUHBl7UA-265" value="D" style="ellipse;whiteSpace=wrap;html=1;aspect=fixed;" vertex="1" parent="1">
          <mxGeometry x="397.5" y="2980" width="80" height="80" as="geometry" />
        </mxCell>
        <mxCell id="vhvZTh_FQUSVOUHBl7UA-266" style="edgeStyle=orthogonalEdgeStyle;rounded=0;orthogonalLoop=1;jettySize=auto;html=1;exitX=0.5;exitY=0;exitDx=0;exitDy=0;entryX=0.5;entryY=1;entryDx=0;entryDy=0;" edge="1" parent="1" source="vhvZTh_FQUSVOUHBl7UA-267" target="vhvZTh_FQUSVOUHBl7UA-260">
          <mxGeometry relative="1" as="geometry" />
        </mxCell>
        <mxCell id="vhvZTh_FQUSVOUHBl7UA-267" value="E" style="ellipse;whiteSpace=wrap;html=1;aspect=fixed;" vertex="1" parent="1">
          <mxGeometry x="520" y="3120" width="80" height="80" as="geometry" />
        </mxCell>
        <mxCell id="vhvZTh_FQUSVOUHBl7UA-268" value="F" style="ellipse;whiteSpace=wrap;html=1;aspect=fixed;" vertex="1" parent="1">
          <mxGeometry x="637.5" y="2980" width="80" height="80" as="geometry" />
        </mxCell>
        <mxCell id="vhvZTh_FQUSVOUHBl7UA-269" style="edgeStyle=orthogonalEdgeStyle;rounded=0;orthogonalLoop=1;jettySize=auto;html=1;exitX=0.5;exitY=0;exitDx=0;exitDy=0;entryX=0.5;entryY=1;entryDx=0;entryDy=0;" edge="1" parent="1" source="vhvZTh_FQUSVOUHBl7UA-270" target="vhvZTh_FQUSVOUHBl7UA-260">
          <mxGeometry relative="1" as="geometry" />
        </mxCell>
        <mxCell id="vhvZTh_FQUSVOUHBl7UA-270" value="G" style="ellipse;whiteSpace=wrap;html=1;aspect=fixed;" vertex="1" parent="1">
          <mxGeometry x="285.5" y="3120" width="80" height="80" as="geometry" />
        </mxCell>
        <mxCell id="vhvZTh_FQUSVOUHBl7UA-271" value="H" style="ellipse;whiteSpace=wrap;html=1;aspect=fixed;" vertex="1" parent="1">
          <mxGeometry x="877.5" y="2980" width="80" height="80" as="geometry" />
        </mxCell>
        <mxCell id="vhvZTh_FQUSVOUHBl7UA-272" style="edgeStyle=orthogonalEdgeStyle;rounded=0;orthogonalLoop=1;jettySize=auto;html=1;exitX=0.5;exitY=0;exitDx=0;exitDy=0;entryX=0.5;entryY=1;entryDx=0;entryDy=0;" edge="1" parent="1" source="vhvZTh_FQUSVOUHBl7UA-273" target="vhvZTh_FQUSVOUHBl7UA-260">
          <mxGeometry relative="1" as="geometry" />
        </mxCell>
        <mxCell id="vhvZTh_FQUSVOUHBl7UA-273" value="I" style="ellipse;whiteSpace=wrap;html=1;aspect=fixed;" vertex="1" parent="1">
          <mxGeometry x="37.5" y="3120" width="80" height="80" as="geometry" />
        </mxCell>
        <mxCell id="vhvZTh_FQUSVOUHBl7UA-274" value="J" style="ellipse;whiteSpace=wrap;html=1;aspect=fixed;" vertex="1" parent="1">
          <mxGeometry x="1117.5" y="2980" width="80" height="80" as="geometry" />
        </mxCell>
        <mxCell id="vhvZTh_FQUSVOUHBl7UA-275" value="K" style="ellipse;whiteSpace=wrap;html=1;aspect=fixed;" vertex="1" parent="1">
          <mxGeometry x="1237.5" y="2980" width="80" height="80" as="geometry" />
        </mxCell>
        <mxCell id="vhvZTh_FQUSVOUHBl7UA-276" value="P" style="ellipse;whiteSpace=wrap;html=1;aspect=fixed;" vertex="1" parent="1">
          <mxGeometry x="1357.5" y="2980" width="80" height="80" as="geometry" />
        </mxCell>
        <mxCell id="vhvZTh_FQUSVOUHBl7UA-277" style="edgeStyle=orthogonalEdgeStyle;rounded=0;orthogonalLoop=1;jettySize=auto;html=1;exitX=0.5;exitY=0;exitDx=0;exitDy=0;entryX=0.5;entryY=1;entryDx=0;entryDy=0;" edge="1" parent="1" source="vhvZTh_FQUSVOUHBl7UA-278" target="vhvZTh_FQUSVOUHBl7UA-276">
          <mxGeometry relative="1" as="geometry" />
        </mxCell>
        <mxCell id="vhvZTh_FQUSVOUHBl7UA-278" value="M" style="ellipse;whiteSpace=wrap;html=1;aspect=fixed;" vertex="1" parent="1">
          <mxGeometry x="1357.5" y="3120" width="80" height="80" as="geometry" />
        </mxCell>
        <mxCell id="vhvZTh_FQUSVOUHBl7UA-279" style="edgeStyle=orthogonalEdgeStyle;rounded=0;orthogonalLoop=1;jettySize=auto;html=1;exitX=0.5;exitY=0;exitDx=0;exitDy=0;entryX=0.5;entryY=1;entryDx=0;entryDy=0;" edge="1" parent="1" source="vhvZTh_FQUSVOUHBl7UA-280" target="vhvZTh_FQUSVOUHBl7UA-276">
          <mxGeometry relative="1" as="geometry" />
        </mxCell>
        <mxCell id="vhvZTh_FQUSVOUHBl7UA-280" value="N" style="ellipse;whiteSpace=wrap;html=1;aspect=fixed;" vertex="1" parent="1">
          <mxGeometry x="1492" y="3120" width="80" height="80" as="geometry" />
        </mxCell>
        <mxCell id="vhvZTh_FQUSVOUHBl7UA-281" value="&lt;span style=&quot;font-size: 24px;&quot;&gt;Edge 10: C-B&lt;/span&gt;" style="text;html=1;strokeColor=none;fillColor=none;align=center;verticalAlign=middle;whiteSpace=wrap;rounded=0;" vertex="1" parent="1">
          <mxGeometry x="103" y="2920" width="1389" height="30" as="geometry" />
        </mxCell>
        <mxCell id="vhvZTh_FQUSVOUHBl7UA-282" value="A" style="ellipse;whiteSpace=wrap;html=1;aspect=fixed;" vertex="1" parent="1">
          <mxGeometry x="37.5" y="3270" width="80" height="80" as="geometry" />
        </mxCell>
        <mxCell id="vhvZTh_FQUSVOUHBl7UA-283" style="edgeStyle=orthogonalEdgeStyle;rounded=0;orthogonalLoop=1;jettySize=auto;html=1;exitX=0.5;exitY=0;exitDx=0;exitDy=0;entryX=0.5;entryY=1;entryDx=0;entryDy=0;" edge="1" parent="1" source="vhvZTh_FQUSVOUHBl7UA-284" target="vhvZTh_FQUSVOUHBl7UA-282">
          <mxGeometry relative="1" as="geometry" />
        </mxCell>
        <mxCell id="vhvZTh_FQUSVOUHBl7UA-284" value="B" style="ellipse;whiteSpace=wrap;html=1;aspect=fixed;" vertex="1" parent="1">
          <mxGeometry x="397.5" y="3410" width="80" height="80" as="geometry" />
        </mxCell>
        <mxCell id="vhvZTh_FQUSVOUHBl7UA-285" style="edgeStyle=orthogonalEdgeStyle;rounded=0;orthogonalLoop=1;jettySize=auto;html=1;exitX=0.5;exitY=0;exitDx=0;exitDy=0;entryX=0.5;entryY=1;entryDx=0;entryDy=0;" edge="1" parent="1" source="vhvZTh_FQUSVOUHBl7UA-286" target="vhvZTh_FQUSVOUHBl7UA-282">
          <mxGeometry relative="1" as="geometry" />
        </mxCell>
        <mxCell id="vhvZTh_FQUSVOUHBl7UA-286" value="C" style="ellipse;whiteSpace=wrap;html=1;aspect=fixed;" vertex="1" parent="1">
          <mxGeometry x="165.5" y="3410" width="80" height="80" as="geometry" />
        </mxCell>
        <mxCell id="vhvZTh_FQUSVOUHBl7UA-287" value="D" style="ellipse;whiteSpace=wrap;html=1;aspect=fixed;" vertex="1" parent="1">
          <mxGeometry x="397.5" y="3270" width="80" height="80" as="geometry" />
        </mxCell>
        <mxCell id="vhvZTh_FQUSVOUHBl7UA-288" style="edgeStyle=orthogonalEdgeStyle;rounded=0;orthogonalLoop=1;jettySize=auto;html=1;exitX=0.5;exitY=0;exitDx=0;exitDy=0;entryX=0.5;entryY=1;entryDx=0;entryDy=0;" edge="1" parent="1" source="vhvZTh_FQUSVOUHBl7UA-289" target="vhvZTh_FQUSVOUHBl7UA-282">
          <mxGeometry relative="1" as="geometry" />
        </mxCell>
        <mxCell id="vhvZTh_FQUSVOUHBl7UA-289" value="E" style="ellipse;whiteSpace=wrap;html=1;aspect=fixed;" vertex="1" parent="1">
          <mxGeometry x="520" y="3410" width="80" height="80" as="geometry" />
        </mxCell>
        <mxCell id="vhvZTh_FQUSVOUHBl7UA-304" style="edgeStyle=orthogonalEdgeStyle;rounded=0;orthogonalLoop=1;jettySize=auto;html=1;exitX=0.5;exitY=0;exitDx=0;exitDy=0;entryX=0.5;entryY=1;entryDx=0;entryDy=0;" edge="1" parent="1" source="vhvZTh_FQUSVOUHBl7UA-290" target="vhvZTh_FQUSVOUHBl7UA-282">
          <mxGeometry relative="1" as="geometry" />
        </mxCell>
        <mxCell id="vhvZTh_FQUSVOUHBl7UA-290" value="F" style="ellipse;whiteSpace=wrap;html=1;aspect=fixed;" vertex="1" parent="1">
          <mxGeometry x="637.5" y="3410" width="80" height="80" as="geometry" />
        </mxCell>
        <mxCell id="vhvZTh_FQUSVOUHBl7UA-291" style="edgeStyle=orthogonalEdgeStyle;rounded=0;orthogonalLoop=1;jettySize=auto;html=1;exitX=0.5;exitY=0;exitDx=0;exitDy=0;entryX=0.5;entryY=1;entryDx=0;entryDy=0;" edge="1" parent="1" source="vhvZTh_FQUSVOUHBl7UA-292" target="vhvZTh_FQUSVOUHBl7UA-282">
          <mxGeometry relative="1" as="geometry" />
        </mxCell>
        <mxCell id="vhvZTh_FQUSVOUHBl7UA-292" value="G" style="ellipse;whiteSpace=wrap;html=1;aspect=fixed;" vertex="1" parent="1">
          <mxGeometry x="285.5" y="3410" width="80" height="80" as="geometry" />
        </mxCell>
        <mxCell id="vhvZTh_FQUSVOUHBl7UA-293" value="H" style="ellipse;whiteSpace=wrap;html=1;aspect=fixed;" vertex="1" parent="1">
          <mxGeometry x="877.5" y="3270" width="80" height="80" as="geometry" />
        </mxCell>
        <mxCell id="vhvZTh_FQUSVOUHBl7UA-294" style="edgeStyle=orthogonalEdgeStyle;rounded=0;orthogonalLoop=1;jettySize=auto;html=1;exitX=0.5;exitY=0;exitDx=0;exitDy=0;entryX=0.5;entryY=1;entryDx=0;entryDy=0;" edge="1" parent="1" source="vhvZTh_FQUSVOUHBl7UA-295" target="vhvZTh_FQUSVOUHBl7UA-282">
          <mxGeometry relative="1" as="geometry" />
        </mxCell>
        <mxCell id="vhvZTh_FQUSVOUHBl7UA-295" value="I" style="ellipse;whiteSpace=wrap;html=1;aspect=fixed;" vertex="1" parent="1">
          <mxGeometry x="37.5" y="3410" width="80" height="80" as="geometry" />
        </mxCell>
        <mxCell id="vhvZTh_FQUSVOUHBl7UA-296" value="J" style="ellipse;whiteSpace=wrap;html=1;aspect=fixed;" vertex="1" parent="1">
          <mxGeometry x="1117.5" y="3270" width="80" height="80" as="geometry" />
        </mxCell>
        <mxCell id="vhvZTh_FQUSVOUHBl7UA-297" value="K" style="ellipse;whiteSpace=wrap;html=1;aspect=fixed;" vertex="1" parent="1">
          <mxGeometry x="1237.5" y="3270" width="80" height="80" as="geometry" />
        </mxCell>
        <mxCell id="vhvZTh_FQUSVOUHBl7UA-298" value="P" style="ellipse;whiteSpace=wrap;html=1;aspect=fixed;" vertex="1" parent="1">
          <mxGeometry x="1357.5" y="3270" width="80" height="80" as="geometry" />
        </mxCell>
        <mxCell id="vhvZTh_FQUSVOUHBl7UA-299" style="edgeStyle=orthogonalEdgeStyle;rounded=0;orthogonalLoop=1;jettySize=auto;html=1;exitX=0.5;exitY=0;exitDx=0;exitDy=0;entryX=0.5;entryY=1;entryDx=0;entryDy=0;" edge="1" parent="1" source="vhvZTh_FQUSVOUHBl7UA-300" target="vhvZTh_FQUSVOUHBl7UA-298">
          <mxGeometry relative="1" as="geometry" />
        </mxCell>
        <mxCell id="vhvZTh_FQUSVOUHBl7UA-300" value="M" style="ellipse;whiteSpace=wrap;html=1;aspect=fixed;" vertex="1" parent="1">
          <mxGeometry x="1357.5" y="3410" width="80" height="80" as="geometry" />
        </mxCell>
        <mxCell id="vhvZTh_FQUSVOUHBl7UA-301" style="edgeStyle=orthogonalEdgeStyle;rounded=0;orthogonalLoop=1;jettySize=auto;html=1;exitX=0.5;exitY=0;exitDx=0;exitDy=0;entryX=0.5;entryY=1;entryDx=0;entryDy=0;" edge="1" parent="1" source="vhvZTh_FQUSVOUHBl7UA-302" target="vhvZTh_FQUSVOUHBl7UA-298">
          <mxGeometry relative="1" as="geometry" />
        </mxCell>
        <mxCell id="vhvZTh_FQUSVOUHBl7UA-302" value="N" style="ellipse;whiteSpace=wrap;html=1;aspect=fixed;" vertex="1" parent="1">
          <mxGeometry x="1492" y="3410" width="80" height="80" as="geometry" />
        </mxCell>
        <mxCell id="vhvZTh_FQUSVOUHBl7UA-303" value="&lt;span style=&quot;font-size: 24px;&quot;&gt;Edge 11: C-F&lt;/span&gt;" style="text;html=1;strokeColor=none;fillColor=none;align=center;verticalAlign=middle;whiteSpace=wrap;rounded=0;" vertex="1" parent="1">
          <mxGeometry x="104" y="3210" width="1389" height="30" as="geometry" />
        </mxCell>
        <mxCell id="vhvZTh_FQUSVOUHBl7UA-305" value="A" style="ellipse;whiteSpace=wrap;html=1;aspect=fixed;" vertex="1" parent="1">
          <mxGeometry x="37.5" y="3564" width="80" height="80" as="geometry" />
        </mxCell>
        <mxCell id="vhvZTh_FQUSVOUHBl7UA-306" style="edgeStyle=orthogonalEdgeStyle;rounded=0;orthogonalLoop=1;jettySize=auto;html=1;exitX=0.5;exitY=0;exitDx=0;exitDy=0;entryX=0.5;entryY=1;entryDx=0;entryDy=0;" edge="1" parent="1" source="vhvZTh_FQUSVOUHBl7UA-307" target="vhvZTh_FQUSVOUHBl7UA-305">
          <mxGeometry relative="1" as="geometry" />
        </mxCell>
        <mxCell id="vhvZTh_FQUSVOUHBl7UA-307" value="B" style="ellipse;whiteSpace=wrap;html=1;aspect=fixed;" vertex="1" parent="1">
          <mxGeometry x="397.5" y="3704" width="80" height="80" as="geometry" />
        </mxCell>
        <mxCell id="vhvZTh_FQUSVOUHBl7UA-308" style="edgeStyle=orthogonalEdgeStyle;rounded=0;orthogonalLoop=1;jettySize=auto;html=1;exitX=0.5;exitY=0;exitDx=0;exitDy=0;entryX=0.5;entryY=1;entryDx=0;entryDy=0;" edge="1" parent="1" source="vhvZTh_FQUSVOUHBl7UA-309" target="vhvZTh_FQUSVOUHBl7UA-305">
          <mxGeometry relative="1" as="geometry" />
        </mxCell>
        <mxCell id="vhvZTh_FQUSVOUHBl7UA-309" value="C" style="ellipse;whiteSpace=wrap;html=1;aspect=fixed;" vertex="1" parent="1">
          <mxGeometry x="165.5" y="3704" width="80" height="80" as="geometry" />
        </mxCell>
        <mxCell id="vhvZTh_FQUSVOUHBl7UA-310" value="D" style="ellipse;whiteSpace=wrap;html=1;aspect=fixed;" vertex="1" parent="1">
          <mxGeometry x="397.5" y="3564" width="80" height="80" as="geometry" />
        </mxCell>
        <mxCell id="vhvZTh_FQUSVOUHBl7UA-311" style="edgeStyle=orthogonalEdgeStyle;rounded=0;orthogonalLoop=1;jettySize=auto;html=1;exitX=0.5;exitY=0;exitDx=0;exitDy=0;entryX=0.5;entryY=1;entryDx=0;entryDy=0;" edge="1" parent="1" source="vhvZTh_FQUSVOUHBl7UA-312" target="vhvZTh_FQUSVOUHBl7UA-305">
          <mxGeometry relative="1" as="geometry" />
        </mxCell>
        <mxCell id="vhvZTh_FQUSVOUHBl7UA-312" value="E" style="ellipse;whiteSpace=wrap;html=1;aspect=fixed;" vertex="1" parent="1">
          <mxGeometry x="520" y="3704" width="80" height="80" as="geometry" />
        </mxCell>
        <mxCell id="vhvZTh_FQUSVOUHBl7UA-313" style="edgeStyle=orthogonalEdgeStyle;rounded=0;orthogonalLoop=1;jettySize=auto;html=1;exitX=0.5;exitY=0;exitDx=0;exitDy=0;entryX=0.5;entryY=1;entryDx=0;entryDy=0;" edge="1" parent="1" source="vhvZTh_FQUSVOUHBl7UA-314" target="vhvZTh_FQUSVOUHBl7UA-305">
          <mxGeometry relative="1" as="geometry" />
        </mxCell>
        <mxCell id="vhvZTh_FQUSVOUHBl7UA-314" value="F" style="ellipse;whiteSpace=wrap;html=1;aspect=fixed;" vertex="1" parent="1">
          <mxGeometry x="637.5" y="3704" width="80" height="80" as="geometry" />
        </mxCell>
        <mxCell id="vhvZTh_FQUSVOUHBl7UA-315" style="edgeStyle=orthogonalEdgeStyle;rounded=0;orthogonalLoop=1;jettySize=auto;html=1;exitX=0.5;exitY=0;exitDx=0;exitDy=0;entryX=0.5;entryY=1;entryDx=0;entryDy=0;" edge="1" parent="1" source="vhvZTh_FQUSVOUHBl7UA-316" target="vhvZTh_FQUSVOUHBl7UA-305">
          <mxGeometry relative="1" as="geometry" />
        </mxCell>
        <mxCell id="vhvZTh_FQUSVOUHBl7UA-316" value="G" style="ellipse;whiteSpace=wrap;html=1;aspect=fixed;" vertex="1" parent="1">
          <mxGeometry x="285.5" y="3704" width="80" height="80" as="geometry" />
        </mxCell>
        <mxCell id="vhvZTh_FQUSVOUHBl7UA-317" value="H" style="ellipse;whiteSpace=wrap;html=1;aspect=fixed;" vertex="1" parent="1">
          <mxGeometry x="877.5" y="3564" width="80" height="80" as="geometry" />
        </mxCell>
        <mxCell id="vhvZTh_FQUSVOUHBl7UA-318" style="edgeStyle=orthogonalEdgeStyle;rounded=0;orthogonalLoop=1;jettySize=auto;html=1;exitX=0.5;exitY=0;exitDx=0;exitDy=0;entryX=0.5;entryY=1;entryDx=0;entryDy=0;" edge="1" parent="1" source="vhvZTh_FQUSVOUHBl7UA-319" target="vhvZTh_FQUSVOUHBl7UA-305">
          <mxGeometry relative="1" as="geometry" />
        </mxCell>
        <mxCell id="vhvZTh_FQUSVOUHBl7UA-319" value="I" style="ellipse;whiteSpace=wrap;html=1;aspect=fixed;" vertex="1" parent="1">
          <mxGeometry x="37.5" y="3704" width="80" height="80" as="geometry" />
        </mxCell>
        <mxCell id="vhvZTh_FQUSVOUHBl7UA-320" value="J" style="ellipse;whiteSpace=wrap;html=1;aspect=fixed;" vertex="1" parent="1">
          <mxGeometry x="1117.5" y="3564" width="80" height="80" as="geometry" />
        </mxCell>
        <mxCell id="vhvZTh_FQUSVOUHBl7UA-321" value="K" style="ellipse;whiteSpace=wrap;html=1;aspect=fixed;" vertex="1" parent="1">
          <mxGeometry x="1237.5" y="3564" width="80" height="80" as="geometry" />
        </mxCell>
        <mxCell id="vhvZTh_FQUSVOUHBl7UA-322" value="P" style="ellipse;whiteSpace=wrap;html=1;aspect=fixed;" vertex="1" parent="1">
          <mxGeometry x="1357.5" y="3564" width="80" height="80" as="geometry" />
        </mxCell>
        <mxCell id="vhvZTh_FQUSVOUHBl7UA-323" style="edgeStyle=orthogonalEdgeStyle;rounded=0;orthogonalLoop=1;jettySize=auto;html=1;exitX=0.5;exitY=0;exitDx=0;exitDy=0;entryX=0.5;entryY=1;entryDx=0;entryDy=0;" edge="1" parent="1" source="vhvZTh_FQUSVOUHBl7UA-324" target="vhvZTh_FQUSVOUHBl7UA-322">
          <mxGeometry relative="1" as="geometry" />
        </mxCell>
        <mxCell id="vhvZTh_FQUSVOUHBl7UA-324" value="M" style="ellipse;whiteSpace=wrap;html=1;aspect=fixed;" vertex="1" parent="1">
          <mxGeometry x="1357.5" y="3704" width="80" height="80" as="geometry" />
        </mxCell>
        <mxCell id="vhvZTh_FQUSVOUHBl7UA-325" style="edgeStyle=orthogonalEdgeStyle;rounded=0;orthogonalLoop=1;jettySize=auto;html=1;exitX=0.5;exitY=0;exitDx=0;exitDy=0;entryX=0.5;entryY=1;entryDx=0;entryDy=0;" edge="1" parent="1" source="vhvZTh_FQUSVOUHBl7UA-326" target="vhvZTh_FQUSVOUHBl7UA-322">
          <mxGeometry relative="1" as="geometry" />
        </mxCell>
        <mxCell id="vhvZTh_FQUSVOUHBl7UA-326" value="N" style="ellipse;whiteSpace=wrap;html=1;aspect=fixed;" vertex="1" parent="1">
          <mxGeometry x="1492" y="3704" width="80" height="80" as="geometry" />
        </mxCell>
        <mxCell id="vhvZTh_FQUSVOUHBl7UA-327" value="&lt;span style=&quot;font-size: 24px;&quot;&gt;Edge 12:B-G&lt;/span&gt;" style="text;html=1;strokeColor=none;fillColor=none;align=center;verticalAlign=middle;whiteSpace=wrap;rounded=0;" vertex="1" parent="1">
          <mxGeometry x="104" y="3504" width="1389" height="30" as="geometry" />
        </mxCell>
        <mxCell id="vhvZTh_FQUSVOUHBl7UA-328" value="A" style="ellipse;whiteSpace=wrap;html=1;aspect=fixed;" vertex="1" parent="1">
          <mxGeometry x="37.5" y="3844" width="80" height="80" as="geometry" />
        </mxCell>
        <mxCell id="vhvZTh_FQUSVOUHBl7UA-329" style="edgeStyle=orthogonalEdgeStyle;rounded=0;orthogonalLoop=1;jettySize=auto;html=1;exitX=0.5;exitY=0;exitDx=0;exitDy=0;entryX=0.5;entryY=1;entryDx=0;entryDy=0;" edge="1" parent="1" source="vhvZTh_FQUSVOUHBl7UA-330" target="vhvZTh_FQUSVOUHBl7UA-328">
          <mxGeometry relative="1" as="geometry" />
        </mxCell>
        <mxCell id="vhvZTh_FQUSVOUHBl7UA-330" value="B" style="ellipse;whiteSpace=wrap;html=1;aspect=fixed;" vertex="1" parent="1">
          <mxGeometry x="397.5" y="3984" width="80" height="80" as="geometry" />
        </mxCell>
        <mxCell id="vhvZTh_FQUSVOUHBl7UA-331" style="edgeStyle=orthogonalEdgeStyle;rounded=0;orthogonalLoop=1;jettySize=auto;html=1;exitX=0.5;exitY=0;exitDx=0;exitDy=0;entryX=0.5;entryY=1;entryDx=0;entryDy=0;" edge="1" parent="1" source="vhvZTh_FQUSVOUHBl7UA-332" target="vhvZTh_FQUSVOUHBl7UA-328">
          <mxGeometry relative="1" as="geometry" />
        </mxCell>
        <mxCell id="vhvZTh_FQUSVOUHBl7UA-332" value="C" style="ellipse;whiteSpace=wrap;html=1;aspect=fixed;" vertex="1" parent="1">
          <mxGeometry x="165.5" y="3984" width="80" height="80" as="geometry" />
        </mxCell>
        <mxCell id="vhvZTh_FQUSVOUHBl7UA-333" value="D" style="ellipse;whiteSpace=wrap;html=1;aspect=fixed;" vertex="1" parent="1">
          <mxGeometry x="397.5" y="3844" width="80" height="80" as="geometry" />
        </mxCell>
        <mxCell id="vhvZTh_FQUSVOUHBl7UA-334" style="edgeStyle=orthogonalEdgeStyle;rounded=0;orthogonalLoop=1;jettySize=auto;html=1;exitX=0.5;exitY=0;exitDx=0;exitDy=0;entryX=0.5;entryY=1;entryDx=0;entryDy=0;" edge="1" parent="1" source="vhvZTh_FQUSVOUHBl7UA-335" target="vhvZTh_FQUSVOUHBl7UA-328">
          <mxGeometry relative="1" as="geometry" />
        </mxCell>
        <mxCell id="vhvZTh_FQUSVOUHBl7UA-335" value="E" style="ellipse;whiteSpace=wrap;html=1;aspect=fixed;" vertex="1" parent="1">
          <mxGeometry x="520" y="3984" width="80" height="80" as="geometry" />
        </mxCell>
        <mxCell id="vhvZTh_FQUSVOUHBl7UA-336" style="edgeStyle=orthogonalEdgeStyle;rounded=0;orthogonalLoop=1;jettySize=auto;html=1;exitX=0.5;exitY=0;exitDx=0;exitDy=0;entryX=0.5;entryY=1;entryDx=0;entryDy=0;" edge="1" parent="1" source="vhvZTh_FQUSVOUHBl7UA-337" target="vhvZTh_FQUSVOUHBl7UA-328">
          <mxGeometry relative="1" as="geometry" />
        </mxCell>
        <mxCell id="vhvZTh_FQUSVOUHBl7UA-337" value="F" style="ellipse;whiteSpace=wrap;html=1;aspect=fixed;" vertex="1" parent="1">
          <mxGeometry x="637.5" y="3984" width="80" height="80" as="geometry" />
        </mxCell>
        <mxCell id="vhvZTh_FQUSVOUHBl7UA-338" style="edgeStyle=orthogonalEdgeStyle;rounded=0;orthogonalLoop=1;jettySize=auto;html=1;exitX=0.5;exitY=0;exitDx=0;exitDy=0;entryX=0.5;entryY=1;entryDx=0;entryDy=0;" edge="1" parent="1" source="vhvZTh_FQUSVOUHBl7UA-339" target="vhvZTh_FQUSVOUHBl7UA-328">
          <mxGeometry relative="1" as="geometry" />
        </mxCell>
        <mxCell id="vhvZTh_FQUSVOUHBl7UA-339" value="G" style="ellipse;whiteSpace=wrap;html=1;aspect=fixed;" vertex="1" parent="1">
          <mxGeometry x="285.5" y="3984" width="80" height="80" as="geometry" />
        </mxCell>
        <mxCell id="vhvZTh_FQUSVOUHBl7UA-340" value="H" style="ellipse;whiteSpace=wrap;html=1;aspect=fixed;" vertex="1" parent="1">
          <mxGeometry x="877.5" y="3844" width="80" height="80" as="geometry" />
        </mxCell>
        <mxCell id="vhvZTh_FQUSVOUHBl7UA-341" style="edgeStyle=orthogonalEdgeStyle;rounded=0;orthogonalLoop=1;jettySize=auto;html=1;exitX=0.5;exitY=0;exitDx=0;exitDy=0;entryX=0.5;entryY=1;entryDx=0;entryDy=0;" edge="1" parent="1" source="vhvZTh_FQUSVOUHBl7UA-342" target="vhvZTh_FQUSVOUHBl7UA-328">
          <mxGeometry relative="1" as="geometry" />
        </mxCell>
        <mxCell id="vhvZTh_FQUSVOUHBl7UA-342" value="I" style="ellipse;whiteSpace=wrap;html=1;aspect=fixed;" vertex="1" parent="1">
          <mxGeometry x="37.5" y="3984" width="80" height="80" as="geometry" />
        </mxCell>
        <mxCell id="vhvZTh_FQUSVOUHBl7UA-343" value="J" style="ellipse;whiteSpace=wrap;html=1;aspect=fixed;" vertex="1" parent="1">
          <mxGeometry x="1117.5" y="3844" width="80" height="80" as="geometry" />
        </mxCell>
        <mxCell id="vhvZTh_FQUSVOUHBl7UA-344" value="K" style="ellipse;whiteSpace=wrap;html=1;aspect=fixed;" vertex="1" parent="1">
          <mxGeometry x="1237.5" y="3844" width="80" height="80" as="geometry" />
        </mxCell>
        <mxCell id="vhvZTh_FQUSVOUHBl7UA-345" value="P" style="ellipse;whiteSpace=wrap;html=1;aspect=fixed;" vertex="1" parent="1">
          <mxGeometry x="1357.5" y="3844" width="80" height="80" as="geometry" />
        </mxCell>
        <mxCell id="vhvZTh_FQUSVOUHBl7UA-346" style="edgeStyle=orthogonalEdgeStyle;rounded=0;orthogonalLoop=1;jettySize=auto;html=1;exitX=0.5;exitY=0;exitDx=0;exitDy=0;entryX=0.5;entryY=1;entryDx=0;entryDy=0;" edge="1" parent="1" source="vhvZTh_FQUSVOUHBl7UA-347" target="vhvZTh_FQUSVOUHBl7UA-345">
          <mxGeometry relative="1" as="geometry" />
        </mxCell>
        <mxCell id="vhvZTh_FQUSVOUHBl7UA-347" value="M" style="ellipse;whiteSpace=wrap;html=1;aspect=fixed;" vertex="1" parent="1">
          <mxGeometry x="1357.5" y="3984" width="80" height="80" as="geometry" />
        </mxCell>
        <mxCell id="vhvZTh_FQUSVOUHBl7UA-348" style="edgeStyle=orthogonalEdgeStyle;rounded=0;orthogonalLoop=1;jettySize=auto;html=1;exitX=0.5;exitY=0;exitDx=0;exitDy=0;entryX=0.5;entryY=1;entryDx=0;entryDy=0;" edge="1" parent="1" source="vhvZTh_FQUSVOUHBl7UA-349" target="vhvZTh_FQUSVOUHBl7UA-345">
          <mxGeometry relative="1" as="geometry" />
        </mxCell>
        <mxCell id="vhvZTh_FQUSVOUHBl7UA-349" value="N" style="ellipse;whiteSpace=wrap;html=1;aspect=fixed;" vertex="1" parent="1">
          <mxGeometry x="1492" y="3984" width="80" height="80" as="geometry" />
        </mxCell>
        <mxCell id="vhvZTh_FQUSVOUHBl7UA-350" value="&lt;span style=&quot;font-size: 24px;&quot;&gt;Edge 13:G-F&lt;/span&gt;" style="text;html=1;strokeColor=none;fillColor=none;align=center;verticalAlign=middle;whiteSpace=wrap;rounded=0;" vertex="1" parent="1">
          <mxGeometry x="104" y="3784" width="1389" height="30" as="geometry" />
        </mxCell>
        <mxCell id="vhvZTh_FQUSVOUHBl7UA-351" value="A" style="ellipse;whiteSpace=wrap;html=1;aspect=fixed;" vertex="1" parent="1">
          <mxGeometry x="31.25" y="4124" width="80" height="80" as="geometry" />
        </mxCell>
        <mxCell id="vhvZTh_FQUSVOUHBl7UA-352" style="edgeStyle=orthogonalEdgeStyle;rounded=0;orthogonalLoop=1;jettySize=auto;html=1;exitX=0.5;exitY=0;exitDx=0;exitDy=0;entryX=0.5;entryY=1;entryDx=0;entryDy=0;" edge="1" parent="1" source="vhvZTh_FQUSVOUHBl7UA-353" target="vhvZTh_FQUSVOUHBl7UA-351">
          <mxGeometry relative="1" as="geometry" />
        </mxCell>
        <mxCell id="vhvZTh_FQUSVOUHBl7UA-353" value="B" style="ellipse;whiteSpace=wrap;html=1;aspect=fixed;" vertex="1" parent="1">
          <mxGeometry x="391.25" y="4264" width="80" height="80" as="geometry" />
        </mxCell>
        <mxCell id="vhvZTh_FQUSVOUHBl7UA-354" style="edgeStyle=orthogonalEdgeStyle;rounded=0;orthogonalLoop=1;jettySize=auto;html=1;exitX=0.5;exitY=0;exitDx=0;exitDy=0;entryX=0.5;entryY=1;entryDx=0;entryDy=0;" edge="1" parent="1" source="vhvZTh_FQUSVOUHBl7UA-355" target="vhvZTh_FQUSVOUHBl7UA-351">
          <mxGeometry relative="1" as="geometry" />
        </mxCell>
        <mxCell id="vhvZTh_FQUSVOUHBl7UA-355" value="C" style="ellipse;whiteSpace=wrap;html=1;aspect=fixed;" vertex="1" parent="1">
          <mxGeometry x="159.25" y="4264" width="80" height="80" as="geometry" />
        </mxCell>
        <mxCell id="vhvZTh_FQUSVOUHBl7UA-356" value="D" style="ellipse;whiteSpace=wrap;html=1;aspect=fixed;" vertex="1" parent="1">
          <mxGeometry x="391.25" y="4124" width="80" height="80" as="geometry" />
        </mxCell>
        <mxCell id="vhvZTh_FQUSVOUHBl7UA-357" style="edgeStyle=orthogonalEdgeStyle;rounded=0;orthogonalLoop=1;jettySize=auto;html=1;exitX=0.5;exitY=0;exitDx=0;exitDy=0;entryX=0.5;entryY=1;entryDx=0;entryDy=0;" edge="1" parent="1" source="vhvZTh_FQUSVOUHBl7UA-358" target="vhvZTh_FQUSVOUHBl7UA-351">
          <mxGeometry relative="1" as="geometry" />
        </mxCell>
        <mxCell id="vhvZTh_FQUSVOUHBl7UA-358" value="E" style="ellipse;whiteSpace=wrap;html=1;aspect=fixed;" vertex="1" parent="1">
          <mxGeometry x="513.75" y="4264" width="80" height="80" as="geometry" />
        </mxCell>
        <mxCell id="vhvZTh_FQUSVOUHBl7UA-359" style="edgeStyle=orthogonalEdgeStyle;rounded=0;orthogonalLoop=1;jettySize=auto;html=1;exitX=0.5;exitY=0;exitDx=0;exitDy=0;entryX=0.5;entryY=1;entryDx=0;entryDy=0;" edge="1" parent="1" source="vhvZTh_FQUSVOUHBl7UA-360" target="vhvZTh_FQUSVOUHBl7UA-351">
          <mxGeometry relative="1" as="geometry" />
        </mxCell>
        <mxCell id="vhvZTh_FQUSVOUHBl7UA-360" value="F" style="ellipse;whiteSpace=wrap;html=1;aspect=fixed;" vertex="1" parent="1">
          <mxGeometry x="631.25" y="4264" width="80" height="80" as="geometry" />
        </mxCell>
        <mxCell id="vhvZTh_FQUSVOUHBl7UA-361" style="edgeStyle=orthogonalEdgeStyle;rounded=0;orthogonalLoop=1;jettySize=auto;html=1;exitX=0.5;exitY=0;exitDx=0;exitDy=0;entryX=0.5;entryY=1;entryDx=0;entryDy=0;" edge="1" parent="1" source="vhvZTh_FQUSVOUHBl7UA-362" target="vhvZTh_FQUSVOUHBl7UA-351">
          <mxGeometry relative="1" as="geometry" />
        </mxCell>
        <mxCell id="vhvZTh_FQUSVOUHBl7UA-362" value="G" style="ellipse;whiteSpace=wrap;html=1;aspect=fixed;" vertex="1" parent="1">
          <mxGeometry x="279.25" y="4264" width="80" height="80" as="geometry" />
        </mxCell>
        <mxCell id="vhvZTh_FQUSVOUHBl7UA-363" value="H" style="ellipse;whiteSpace=wrap;html=1;aspect=fixed;" vertex="1" parent="1">
          <mxGeometry x="871.25" y="4124" width="80" height="80" as="geometry" />
        </mxCell>
        <mxCell id="vhvZTh_FQUSVOUHBl7UA-364" style="edgeStyle=orthogonalEdgeStyle;rounded=0;orthogonalLoop=1;jettySize=auto;html=1;exitX=0.5;exitY=0;exitDx=0;exitDy=0;entryX=0.5;entryY=1;entryDx=0;entryDy=0;" edge="1" parent="1" source="vhvZTh_FQUSVOUHBl7UA-365" target="vhvZTh_FQUSVOUHBl7UA-351">
          <mxGeometry relative="1" as="geometry" />
        </mxCell>
        <mxCell id="vhvZTh_FQUSVOUHBl7UA-365" value="I" style="ellipse;whiteSpace=wrap;html=1;aspect=fixed;" vertex="1" parent="1">
          <mxGeometry x="31.25" y="4264" width="80" height="80" as="geometry" />
        </mxCell>
        <mxCell id="vhvZTh_FQUSVOUHBl7UA-366" value="J" style="ellipse;whiteSpace=wrap;html=1;aspect=fixed;" vertex="1" parent="1">
          <mxGeometry x="1111.25" y="4124" width="80" height="80" as="geometry" />
        </mxCell>
        <mxCell id="vhvZTh_FQUSVOUHBl7UA-367" value="K" style="ellipse;whiteSpace=wrap;html=1;aspect=fixed;" vertex="1" parent="1">
          <mxGeometry x="1231.25" y="4124" width="80" height="80" as="geometry" />
        </mxCell>
        <mxCell id="vhvZTh_FQUSVOUHBl7UA-368" value="P" style="ellipse;whiteSpace=wrap;html=1;aspect=fixed;" vertex="1" parent="1">
          <mxGeometry x="1351.25" y="4124" width="80" height="80" as="geometry" />
        </mxCell>
        <mxCell id="vhvZTh_FQUSVOUHBl7UA-369" style="edgeStyle=orthogonalEdgeStyle;rounded=0;orthogonalLoop=1;jettySize=auto;html=1;exitX=0.5;exitY=0;exitDx=0;exitDy=0;entryX=0.5;entryY=1;entryDx=0;entryDy=0;" edge="1" parent="1" source="vhvZTh_FQUSVOUHBl7UA-370" target="vhvZTh_FQUSVOUHBl7UA-368">
          <mxGeometry relative="1" as="geometry" />
        </mxCell>
        <mxCell id="vhvZTh_FQUSVOUHBl7UA-370" value="M" style="ellipse;whiteSpace=wrap;html=1;aspect=fixed;" vertex="1" parent="1">
          <mxGeometry x="1351.25" y="4264" width="80" height="80" as="geometry" />
        </mxCell>
        <mxCell id="vhvZTh_FQUSVOUHBl7UA-371" style="edgeStyle=orthogonalEdgeStyle;rounded=0;orthogonalLoop=1;jettySize=auto;html=1;exitX=0.5;exitY=0;exitDx=0;exitDy=0;entryX=0.5;entryY=1;entryDx=0;entryDy=0;" edge="1" parent="1" source="vhvZTh_FQUSVOUHBl7UA-372" target="vhvZTh_FQUSVOUHBl7UA-368">
          <mxGeometry relative="1" as="geometry" />
        </mxCell>
        <mxCell id="vhvZTh_FQUSVOUHBl7UA-372" value="N" style="ellipse;whiteSpace=wrap;html=1;aspect=fixed;" vertex="1" parent="1">
          <mxGeometry x="1485.75" y="4264" width="80" height="80" as="geometry" />
        </mxCell>
        <mxCell id="vhvZTh_FQUSVOUHBl7UA-373" value="&lt;span style=&quot;font-size: 24px;&quot;&gt;Edge 14:E-F&lt;/span&gt;" style="text;html=1;strokeColor=none;fillColor=none;align=center;verticalAlign=middle;whiteSpace=wrap;rounded=0;" vertex="1" parent="1">
          <mxGeometry x="97.75" y="4064" width="1389" height="30" as="geometry" />
        </mxCell>
        <mxCell id="vhvZTh_FQUSVOUHBl7UA-396" value="A" style="ellipse;whiteSpace=wrap;html=1;aspect=fixed;" vertex="1" parent="1">
          <mxGeometry x="37.5" y="4420" width="80" height="80" as="geometry" />
        </mxCell>
        <mxCell id="vhvZTh_FQUSVOUHBl7UA-397" style="edgeStyle=orthogonalEdgeStyle;rounded=0;orthogonalLoop=1;jettySize=auto;html=1;exitX=0.5;exitY=0;exitDx=0;exitDy=0;entryX=0.5;entryY=1;entryDx=0;entryDy=0;" edge="1" parent="1" source="vhvZTh_FQUSVOUHBl7UA-398" target="vhvZTh_FQUSVOUHBl7UA-396">
          <mxGeometry relative="1" as="geometry" />
        </mxCell>
        <mxCell id="vhvZTh_FQUSVOUHBl7UA-398" value="B" style="ellipse;whiteSpace=wrap;html=1;aspect=fixed;" vertex="1" parent="1">
          <mxGeometry x="397.5" y="4560" width="80" height="80" as="geometry" />
        </mxCell>
        <mxCell id="vhvZTh_FQUSVOUHBl7UA-399" style="edgeStyle=orthogonalEdgeStyle;rounded=0;orthogonalLoop=1;jettySize=auto;html=1;exitX=0.5;exitY=0;exitDx=0;exitDy=0;entryX=0.5;entryY=1;entryDx=0;entryDy=0;" edge="1" parent="1" source="vhvZTh_FQUSVOUHBl7UA-400" target="vhvZTh_FQUSVOUHBl7UA-396">
          <mxGeometry relative="1" as="geometry" />
        </mxCell>
        <mxCell id="vhvZTh_FQUSVOUHBl7UA-400" value="C" style="ellipse;whiteSpace=wrap;html=1;aspect=fixed;" vertex="1" parent="1">
          <mxGeometry x="165.5" y="4560" width="80" height="80" as="geometry" />
        </mxCell>
        <mxCell id="vhvZTh_FQUSVOUHBl7UA-401" value="D" style="ellipse;whiteSpace=wrap;html=1;aspect=fixed;" vertex="1" parent="1">
          <mxGeometry x="397.5" y="4420" width="80" height="80" as="geometry" />
        </mxCell>
        <mxCell id="vhvZTh_FQUSVOUHBl7UA-402" style="edgeStyle=orthogonalEdgeStyle;rounded=0;orthogonalLoop=1;jettySize=auto;html=1;exitX=0.5;exitY=0;exitDx=0;exitDy=0;entryX=0.5;entryY=1;entryDx=0;entryDy=0;" edge="1" parent="1" source="vhvZTh_FQUSVOUHBl7UA-403" target="vhvZTh_FQUSVOUHBl7UA-396">
          <mxGeometry relative="1" as="geometry" />
        </mxCell>
        <mxCell id="vhvZTh_FQUSVOUHBl7UA-403" value="E" style="ellipse;whiteSpace=wrap;html=1;aspect=fixed;" vertex="1" parent="1">
          <mxGeometry x="520" y="4560" width="80" height="80" as="geometry" />
        </mxCell>
        <mxCell id="vhvZTh_FQUSVOUHBl7UA-404" style="edgeStyle=orthogonalEdgeStyle;rounded=0;orthogonalLoop=1;jettySize=auto;html=1;exitX=0.5;exitY=0;exitDx=0;exitDy=0;entryX=0.5;entryY=1;entryDx=0;entryDy=0;" edge="1" parent="1" source="vhvZTh_FQUSVOUHBl7UA-405" target="vhvZTh_FQUSVOUHBl7UA-396">
          <mxGeometry relative="1" as="geometry" />
        </mxCell>
        <mxCell id="vhvZTh_FQUSVOUHBl7UA-405" value="F" style="ellipse;whiteSpace=wrap;html=1;aspect=fixed;" vertex="1" parent="1">
          <mxGeometry x="637.5" y="4560" width="80" height="80" as="geometry" />
        </mxCell>
        <mxCell id="vhvZTh_FQUSVOUHBl7UA-406" style="edgeStyle=orthogonalEdgeStyle;rounded=0;orthogonalLoop=1;jettySize=auto;html=1;exitX=0.5;exitY=0;exitDx=0;exitDy=0;entryX=0.5;entryY=1;entryDx=0;entryDy=0;" edge="1" parent="1" source="vhvZTh_FQUSVOUHBl7UA-407" target="vhvZTh_FQUSVOUHBl7UA-396">
          <mxGeometry relative="1" as="geometry" />
        </mxCell>
        <mxCell id="vhvZTh_FQUSVOUHBl7UA-407" value="G" style="ellipse;whiteSpace=wrap;html=1;aspect=fixed;" vertex="1" parent="1">
          <mxGeometry x="285.5" y="4560" width="80" height="80" as="geometry" />
        </mxCell>
        <mxCell id="vhvZTh_FQUSVOUHBl7UA-408" value="H" style="ellipse;whiteSpace=wrap;html=1;aspect=fixed;" vertex="1" parent="1">
          <mxGeometry x="877.5" y="4420" width="80" height="80" as="geometry" />
        </mxCell>
        <mxCell id="vhvZTh_FQUSVOUHBl7UA-409" style="edgeStyle=orthogonalEdgeStyle;rounded=0;orthogonalLoop=1;jettySize=auto;html=1;exitX=0.5;exitY=0;exitDx=0;exitDy=0;entryX=0.5;entryY=1;entryDx=0;entryDy=0;" edge="1" parent="1" source="vhvZTh_FQUSVOUHBl7UA-410" target="vhvZTh_FQUSVOUHBl7UA-396">
          <mxGeometry relative="1" as="geometry" />
        </mxCell>
        <mxCell id="vhvZTh_FQUSVOUHBl7UA-410" value="I" style="ellipse;whiteSpace=wrap;html=1;aspect=fixed;" vertex="1" parent="1">
          <mxGeometry x="37.5" y="4560" width="80" height="80" as="geometry" />
        </mxCell>
        <mxCell id="vhvZTh_FQUSVOUHBl7UA-411" value="J" style="ellipse;whiteSpace=wrap;html=1;aspect=fixed;" vertex="1" parent="1">
          <mxGeometry x="1117.5" y="4420" width="80" height="80" as="geometry" />
        </mxCell>
        <mxCell id="vhvZTh_FQUSVOUHBl7UA-412" value="K" style="ellipse;whiteSpace=wrap;html=1;aspect=fixed;" vertex="1" parent="1">
          <mxGeometry x="1237.5" y="4420" width="80" height="80" as="geometry" />
        </mxCell>
        <mxCell id="vhvZTh_FQUSVOUHBl7UA-413" value="P" style="ellipse;whiteSpace=wrap;html=1;aspect=fixed;" vertex="1" parent="1">
          <mxGeometry x="1357.5" y="4420" width="80" height="80" as="geometry" />
        </mxCell>
        <mxCell id="vhvZTh_FQUSVOUHBl7UA-414" style="edgeStyle=orthogonalEdgeStyle;rounded=0;orthogonalLoop=1;jettySize=auto;html=1;exitX=0.5;exitY=0;exitDx=0;exitDy=0;entryX=0.5;entryY=1;entryDx=0;entryDy=0;" edge="1" parent="1" source="vhvZTh_FQUSVOUHBl7UA-415" target="vhvZTh_FQUSVOUHBl7UA-413">
          <mxGeometry relative="1" as="geometry" />
        </mxCell>
        <mxCell id="vhvZTh_FQUSVOUHBl7UA-415" value="M" style="ellipse;whiteSpace=wrap;html=1;aspect=fixed;" vertex="1" parent="1">
          <mxGeometry x="1357.5" y="4560" width="80" height="80" as="geometry" />
        </mxCell>
        <mxCell id="vhvZTh_FQUSVOUHBl7UA-416" style="edgeStyle=orthogonalEdgeStyle;rounded=0;orthogonalLoop=1;jettySize=auto;html=1;exitX=0.5;exitY=0;exitDx=0;exitDy=0;entryX=0.5;entryY=1;entryDx=0;entryDy=0;" edge="1" parent="1" source="vhvZTh_FQUSVOUHBl7UA-417" target="vhvZTh_FQUSVOUHBl7UA-413">
          <mxGeometry relative="1" as="geometry" />
        </mxCell>
        <mxCell id="vhvZTh_FQUSVOUHBl7UA-417" value="N" style="ellipse;whiteSpace=wrap;html=1;aspect=fixed;" vertex="1" parent="1">
          <mxGeometry x="1492" y="4560" width="80" height="80" as="geometry" />
        </mxCell>
        <mxCell id="vhvZTh_FQUSVOUHBl7UA-418" value="&lt;span style=&quot;font-size: 24px;&quot;&gt;Edge 15:F-B&lt;/span&gt;" style="text;html=1;strokeColor=none;fillColor=none;align=center;verticalAlign=middle;whiteSpace=wrap;rounded=0;" vertex="1" parent="1">
          <mxGeometry x="104" y="4360" width="1389" height="30" as="geometry" />
        </mxCell>
        <mxCell id="vhvZTh_FQUSVOUHBl7UA-419" value="A" style="ellipse;whiteSpace=wrap;html=1;aspect=fixed;" vertex="1" parent="1">
          <mxGeometry x="47.5" y="4760" width="80" height="80" as="geometry" />
        </mxCell>
        <mxCell id="vhvZTh_FQUSVOUHBl7UA-420" style="edgeStyle=orthogonalEdgeStyle;rounded=0;orthogonalLoop=1;jettySize=auto;html=1;exitX=0.5;exitY=0;exitDx=0;exitDy=0;entryX=0.5;entryY=1;entryDx=0;entryDy=0;" edge="1" parent="1" source="vhvZTh_FQUSVOUHBl7UA-421" target="vhvZTh_FQUSVOUHBl7UA-419">
          <mxGeometry relative="1" as="geometry" />
        </mxCell>
        <mxCell id="vhvZTh_FQUSVOUHBl7UA-421" value="B" style="ellipse;whiteSpace=wrap;html=1;aspect=fixed;" vertex="1" parent="1">
          <mxGeometry x="407.5" y="4900" width="80" height="80" as="geometry" />
        </mxCell>
        <mxCell id="vhvZTh_FQUSVOUHBl7UA-422" style="edgeStyle=orthogonalEdgeStyle;rounded=0;orthogonalLoop=1;jettySize=auto;html=1;exitX=0.5;exitY=0;exitDx=0;exitDy=0;entryX=0.5;entryY=1;entryDx=0;entryDy=0;" edge="1" parent="1" source="vhvZTh_FQUSVOUHBl7UA-423" target="vhvZTh_FQUSVOUHBl7UA-419">
          <mxGeometry relative="1" as="geometry" />
        </mxCell>
        <mxCell id="vhvZTh_FQUSVOUHBl7UA-423" value="C" style="ellipse;whiteSpace=wrap;html=1;aspect=fixed;" vertex="1" parent="1">
          <mxGeometry x="175.5" y="4900" width="80" height="80" as="geometry" />
        </mxCell>
        <mxCell id="vhvZTh_FQUSVOUHBl7UA-442" style="edgeStyle=orthogonalEdgeStyle;rounded=0;orthogonalLoop=1;jettySize=auto;html=1;exitX=0.5;exitY=0;exitDx=0;exitDy=0;entryX=0.5;entryY=1;entryDx=0;entryDy=0;" edge="1" parent="1" source="vhvZTh_FQUSVOUHBl7UA-424" target="vhvZTh_FQUSVOUHBl7UA-431">
          <mxGeometry relative="1" as="geometry" />
        </mxCell>
        <mxCell id="vhvZTh_FQUSVOUHBl7UA-424" value="D" style="ellipse;whiteSpace=wrap;html=1;aspect=fixed;" vertex="1" parent="1">
          <mxGeometry x="887.5" y="4900" width="80" height="80" as="geometry" />
        </mxCell>
        <mxCell id="vhvZTh_FQUSVOUHBl7UA-425" style="edgeStyle=orthogonalEdgeStyle;rounded=0;orthogonalLoop=1;jettySize=auto;html=1;exitX=0.5;exitY=0;exitDx=0;exitDy=0;entryX=0.5;entryY=1;entryDx=0;entryDy=0;" edge="1" parent="1" source="vhvZTh_FQUSVOUHBl7UA-426" target="vhvZTh_FQUSVOUHBl7UA-419">
          <mxGeometry relative="1" as="geometry" />
        </mxCell>
        <mxCell id="vhvZTh_FQUSVOUHBl7UA-426" value="E" style="ellipse;whiteSpace=wrap;html=1;aspect=fixed;" vertex="1" parent="1">
          <mxGeometry x="530" y="4900" width="80" height="80" as="geometry" />
        </mxCell>
        <mxCell id="vhvZTh_FQUSVOUHBl7UA-427" style="edgeStyle=orthogonalEdgeStyle;rounded=0;orthogonalLoop=1;jettySize=auto;html=1;exitX=0.5;exitY=0;exitDx=0;exitDy=0;entryX=0.5;entryY=1;entryDx=0;entryDy=0;" edge="1" parent="1" source="vhvZTh_FQUSVOUHBl7UA-428" target="vhvZTh_FQUSVOUHBl7UA-419">
          <mxGeometry relative="1" as="geometry" />
        </mxCell>
        <mxCell id="vhvZTh_FQUSVOUHBl7UA-428" value="F" style="ellipse;whiteSpace=wrap;html=1;aspect=fixed;" vertex="1" parent="1">
          <mxGeometry x="647.5" y="4900" width="80" height="80" as="geometry" />
        </mxCell>
        <mxCell id="vhvZTh_FQUSVOUHBl7UA-429" style="edgeStyle=orthogonalEdgeStyle;rounded=0;orthogonalLoop=1;jettySize=auto;html=1;exitX=0.5;exitY=0;exitDx=0;exitDy=0;entryX=0.5;entryY=1;entryDx=0;entryDy=0;" edge="1" parent="1" source="vhvZTh_FQUSVOUHBl7UA-430" target="vhvZTh_FQUSVOUHBl7UA-419">
          <mxGeometry relative="1" as="geometry" />
        </mxCell>
        <mxCell id="vhvZTh_FQUSVOUHBl7UA-430" value="G" style="ellipse;whiteSpace=wrap;html=1;aspect=fixed;" vertex="1" parent="1">
          <mxGeometry x="295.5" y="4900" width="80" height="80" as="geometry" />
        </mxCell>
        <mxCell id="vhvZTh_FQUSVOUHBl7UA-431" value="H" style="ellipse;whiteSpace=wrap;html=1;aspect=fixed;" vertex="1" parent="1">
          <mxGeometry x="887.5" y="4760" width="80" height="80" as="geometry" />
        </mxCell>
        <mxCell id="vhvZTh_FQUSVOUHBl7UA-432" style="edgeStyle=orthogonalEdgeStyle;rounded=0;orthogonalLoop=1;jettySize=auto;html=1;exitX=0.5;exitY=0;exitDx=0;exitDy=0;entryX=0.5;entryY=1;entryDx=0;entryDy=0;" edge="1" parent="1" source="vhvZTh_FQUSVOUHBl7UA-433" target="vhvZTh_FQUSVOUHBl7UA-419">
          <mxGeometry relative="1" as="geometry" />
        </mxCell>
        <mxCell id="vhvZTh_FQUSVOUHBl7UA-433" value="I" style="ellipse;whiteSpace=wrap;html=1;aspect=fixed;" vertex="1" parent="1">
          <mxGeometry x="47.5" y="4900" width="80" height="80" as="geometry" />
        </mxCell>
        <mxCell id="vhvZTh_FQUSVOUHBl7UA-434" value="J" style="ellipse;whiteSpace=wrap;html=1;aspect=fixed;" vertex="1" parent="1">
          <mxGeometry x="1127.5" y="4760" width="80" height="80" as="geometry" />
        </mxCell>
        <mxCell id="vhvZTh_FQUSVOUHBl7UA-435" value="K" style="ellipse;whiteSpace=wrap;html=1;aspect=fixed;" vertex="1" parent="1">
          <mxGeometry x="1247.5" y="4760" width="80" height="80" as="geometry" />
        </mxCell>
        <mxCell id="vhvZTh_FQUSVOUHBl7UA-436" value="P" style="ellipse;whiteSpace=wrap;html=1;aspect=fixed;" vertex="1" parent="1">
          <mxGeometry x="1367.5" y="4760" width="80" height="80" as="geometry" />
        </mxCell>
        <mxCell id="vhvZTh_FQUSVOUHBl7UA-437" style="edgeStyle=orthogonalEdgeStyle;rounded=0;orthogonalLoop=1;jettySize=auto;html=1;exitX=0.5;exitY=0;exitDx=0;exitDy=0;entryX=0.5;entryY=1;entryDx=0;entryDy=0;" edge="1" parent="1" source="vhvZTh_FQUSVOUHBl7UA-438" target="vhvZTh_FQUSVOUHBl7UA-436">
          <mxGeometry relative="1" as="geometry" />
        </mxCell>
        <mxCell id="vhvZTh_FQUSVOUHBl7UA-438" value="M" style="ellipse;whiteSpace=wrap;html=1;aspect=fixed;" vertex="1" parent="1">
          <mxGeometry x="1367.5" y="4900" width="80" height="80" as="geometry" />
        </mxCell>
        <mxCell id="vhvZTh_FQUSVOUHBl7UA-439" style="edgeStyle=orthogonalEdgeStyle;rounded=0;orthogonalLoop=1;jettySize=auto;html=1;exitX=0.5;exitY=0;exitDx=0;exitDy=0;entryX=0.5;entryY=1;entryDx=0;entryDy=0;" edge="1" parent="1" source="vhvZTh_FQUSVOUHBl7UA-440" target="vhvZTh_FQUSVOUHBl7UA-436">
          <mxGeometry relative="1" as="geometry" />
        </mxCell>
        <mxCell id="vhvZTh_FQUSVOUHBl7UA-440" value="N" style="ellipse;whiteSpace=wrap;html=1;aspect=fixed;" vertex="1" parent="1">
          <mxGeometry x="1502" y="4900" width="80" height="80" as="geometry" />
        </mxCell>
        <mxCell id="vhvZTh_FQUSVOUHBl7UA-441" value="&lt;span style=&quot;font-size: 24px;&quot;&gt;Edge 16:D-H&lt;/span&gt;" style="text;html=1;strokeColor=none;fillColor=none;align=center;verticalAlign=middle;whiteSpace=wrap;rounded=0;" vertex="1" parent="1">
          <mxGeometry x="114" y="4700" width="1389" height="30" as="geometry" />
        </mxCell>
        <mxCell id="vhvZTh_FQUSVOUHBl7UA-443" value="A" style="ellipse;whiteSpace=wrap;html=1;aspect=fixed;" vertex="1" parent="1">
          <mxGeometry x="47.5" y="5060" width="80" height="80" as="geometry" />
        </mxCell>
        <mxCell id="vhvZTh_FQUSVOUHBl7UA-444" style="edgeStyle=orthogonalEdgeStyle;rounded=0;orthogonalLoop=1;jettySize=auto;html=1;exitX=0.5;exitY=0;exitDx=0;exitDy=0;entryX=0.5;entryY=1;entryDx=0;entryDy=0;" edge="1" parent="1" source="vhvZTh_FQUSVOUHBl7UA-445" target="vhvZTh_FQUSVOUHBl7UA-443">
          <mxGeometry relative="1" as="geometry" />
        </mxCell>
        <mxCell id="vhvZTh_FQUSVOUHBl7UA-445" value="B" style="ellipse;whiteSpace=wrap;html=1;aspect=fixed;" vertex="1" parent="1">
          <mxGeometry x="407.5" y="5200" width="80" height="80" as="geometry" />
        </mxCell>
        <mxCell id="vhvZTh_FQUSVOUHBl7UA-446" style="edgeStyle=orthogonalEdgeStyle;rounded=0;orthogonalLoop=1;jettySize=auto;html=1;exitX=0.5;exitY=0;exitDx=0;exitDy=0;entryX=0.5;entryY=1;entryDx=0;entryDy=0;" edge="1" parent="1" source="vhvZTh_FQUSVOUHBl7UA-447" target="vhvZTh_FQUSVOUHBl7UA-443">
          <mxGeometry relative="1" as="geometry" />
        </mxCell>
        <mxCell id="vhvZTh_FQUSVOUHBl7UA-447" value="C" style="ellipse;whiteSpace=wrap;html=1;aspect=fixed;" vertex="1" parent="1">
          <mxGeometry x="175.5" y="5200" width="80" height="80" as="geometry" />
        </mxCell>
        <mxCell id="vhvZTh_FQUSVOUHBl7UA-448" style="edgeStyle=orthogonalEdgeStyle;rounded=0;orthogonalLoop=1;jettySize=auto;html=1;exitX=0.5;exitY=0;exitDx=0;exitDy=0;entryX=0.5;entryY=1;entryDx=0;entryDy=0;" edge="1" parent="1" source="vhvZTh_FQUSVOUHBl7UA-449" target="vhvZTh_FQUSVOUHBl7UA-456">
          <mxGeometry relative="1" as="geometry" />
        </mxCell>
        <mxCell id="vhvZTh_FQUSVOUHBl7UA-449" value="D" style="ellipse;whiteSpace=wrap;html=1;aspect=fixed;" vertex="1" parent="1">
          <mxGeometry x="887.5" y="5200" width="80" height="80" as="geometry" />
        </mxCell>
        <mxCell id="vhvZTh_FQUSVOUHBl7UA-450" style="edgeStyle=orthogonalEdgeStyle;rounded=0;orthogonalLoop=1;jettySize=auto;html=1;exitX=0.5;exitY=0;exitDx=0;exitDy=0;entryX=0.5;entryY=1;entryDx=0;entryDy=0;" edge="1" parent="1" source="vhvZTh_FQUSVOUHBl7UA-451" target="vhvZTh_FQUSVOUHBl7UA-443">
          <mxGeometry relative="1" as="geometry" />
        </mxCell>
        <mxCell id="vhvZTh_FQUSVOUHBl7UA-451" value="E" style="ellipse;whiteSpace=wrap;html=1;aspect=fixed;" vertex="1" parent="1">
          <mxGeometry x="530" y="5200" width="80" height="80" as="geometry" />
        </mxCell>
        <mxCell id="vhvZTh_FQUSVOUHBl7UA-452" style="edgeStyle=orthogonalEdgeStyle;rounded=0;orthogonalLoop=1;jettySize=auto;html=1;exitX=0.5;exitY=0;exitDx=0;exitDy=0;entryX=0.5;entryY=1;entryDx=0;entryDy=0;" edge="1" parent="1" source="vhvZTh_FQUSVOUHBl7UA-453" target="vhvZTh_FQUSVOUHBl7UA-443">
          <mxGeometry relative="1" as="geometry" />
        </mxCell>
        <mxCell id="vhvZTh_FQUSVOUHBl7UA-453" value="F" style="ellipse;whiteSpace=wrap;html=1;aspect=fixed;" vertex="1" parent="1">
          <mxGeometry x="647.5" y="5200" width="80" height="80" as="geometry" />
        </mxCell>
        <mxCell id="vhvZTh_FQUSVOUHBl7UA-454" style="edgeStyle=orthogonalEdgeStyle;rounded=0;orthogonalLoop=1;jettySize=auto;html=1;exitX=0.5;exitY=0;exitDx=0;exitDy=0;entryX=0.5;entryY=1;entryDx=0;entryDy=0;" edge="1" parent="1" source="vhvZTh_FQUSVOUHBl7UA-455" target="vhvZTh_FQUSVOUHBl7UA-443">
          <mxGeometry relative="1" as="geometry" />
        </mxCell>
        <mxCell id="vhvZTh_FQUSVOUHBl7UA-455" value="G" style="ellipse;whiteSpace=wrap;html=1;aspect=fixed;" vertex="1" parent="1">
          <mxGeometry x="295.5" y="5200" width="80" height="80" as="geometry" />
        </mxCell>
        <mxCell id="vhvZTh_FQUSVOUHBl7UA-456" value="H" style="ellipse;whiteSpace=wrap;html=1;aspect=fixed;" vertex="1" parent="1">
          <mxGeometry x="887.5" y="5060" width="80" height="80" as="geometry" />
        </mxCell>
        <mxCell id="vhvZTh_FQUSVOUHBl7UA-457" style="edgeStyle=orthogonalEdgeStyle;rounded=0;orthogonalLoop=1;jettySize=auto;html=1;exitX=0.5;exitY=0;exitDx=0;exitDy=0;entryX=0.5;entryY=1;entryDx=0;entryDy=0;" edge="1" parent="1" source="vhvZTh_FQUSVOUHBl7UA-458" target="vhvZTh_FQUSVOUHBl7UA-443">
          <mxGeometry relative="1" as="geometry" />
        </mxCell>
        <mxCell id="vhvZTh_FQUSVOUHBl7UA-458" value="I" style="ellipse;whiteSpace=wrap;html=1;aspect=fixed;" vertex="1" parent="1">
          <mxGeometry x="47.5" y="5200" width="80" height="80" as="geometry" />
        </mxCell>
        <mxCell id="vhvZTh_FQUSVOUHBl7UA-459" value="J" style="ellipse;whiteSpace=wrap;html=1;aspect=fixed;" vertex="1" parent="1">
          <mxGeometry x="1127.5" y="5060" width="80" height="80" as="geometry" />
        </mxCell>
        <mxCell id="vhvZTh_FQUSVOUHBl7UA-467" style="edgeStyle=orthogonalEdgeStyle;rounded=0;orthogonalLoop=1;jettySize=auto;html=1;exitX=0.5;exitY=0;exitDx=0;exitDy=0;entryX=0.5;entryY=1;entryDx=0;entryDy=0;" edge="1" parent="1" source="vhvZTh_FQUSVOUHBl7UA-460" target="vhvZTh_FQUSVOUHBl7UA-456">
          <mxGeometry relative="1" as="geometry" />
        </mxCell>
        <mxCell id="vhvZTh_FQUSVOUHBl7UA-460" value="K" style="ellipse;whiteSpace=wrap;html=1;aspect=fixed;" vertex="1" parent="1">
          <mxGeometry x="1020" y="5200" width="80" height="80" as="geometry" />
        </mxCell>
        <mxCell id="vhvZTh_FQUSVOUHBl7UA-461" value="P" style="ellipse;whiteSpace=wrap;html=1;aspect=fixed;" vertex="1" parent="1">
          <mxGeometry x="1367.5" y="5060" width="80" height="80" as="geometry" />
        </mxCell>
        <mxCell id="vhvZTh_FQUSVOUHBl7UA-462" style="edgeStyle=orthogonalEdgeStyle;rounded=0;orthogonalLoop=1;jettySize=auto;html=1;exitX=0.5;exitY=0;exitDx=0;exitDy=0;entryX=0.5;entryY=1;entryDx=0;entryDy=0;" edge="1" parent="1" source="vhvZTh_FQUSVOUHBl7UA-463" target="vhvZTh_FQUSVOUHBl7UA-461">
          <mxGeometry relative="1" as="geometry" />
        </mxCell>
        <mxCell id="vhvZTh_FQUSVOUHBl7UA-463" value="M" style="ellipse;whiteSpace=wrap;html=1;aspect=fixed;" vertex="1" parent="1">
          <mxGeometry x="1367.5" y="5200" width="80" height="80" as="geometry" />
        </mxCell>
        <mxCell id="vhvZTh_FQUSVOUHBl7UA-464" style="edgeStyle=orthogonalEdgeStyle;rounded=0;orthogonalLoop=1;jettySize=auto;html=1;exitX=0.5;exitY=0;exitDx=0;exitDy=0;entryX=0.5;entryY=1;entryDx=0;entryDy=0;" edge="1" parent="1" source="vhvZTh_FQUSVOUHBl7UA-465" target="vhvZTh_FQUSVOUHBl7UA-461">
          <mxGeometry relative="1" as="geometry" />
        </mxCell>
        <mxCell id="vhvZTh_FQUSVOUHBl7UA-465" value="N" style="ellipse;whiteSpace=wrap;html=1;aspect=fixed;" vertex="1" parent="1">
          <mxGeometry x="1502" y="5200" width="80" height="80" as="geometry" />
        </mxCell>
        <mxCell id="vhvZTh_FQUSVOUHBl7UA-466" value="&lt;span style=&quot;font-size: 24px;&quot;&gt;Edge 17:D-K&lt;/span&gt;" style="text;html=1;strokeColor=none;fillColor=none;align=center;verticalAlign=middle;whiteSpace=wrap;rounded=0;" vertex="1" parent="1">
          <mxGeometry x="114" y="5000" width="1389" height="30" as="geometry" />
        </mxCell>
        <mxCell id="vhvZTh_FQUSVOUHBl7UA-468" value="A" style="ellipse;whiteSpace=wrap;html=1;aspect=fixed;" vertex="1" parent="1">
          <mxGeometry x="47.5" y="5340" width="80" height="80" as="geometry" />
        </mxCell>
        <mxCell id="vhvZTh_FQUSVOUHBl7UA-469" style="edgeStyle=orthogonalEdgeStyle;rounded=0;orthogonalLoop=1;jettySize=auto;html=1;exitX=0.5;exitY=0;exitDx=0;exitDy=0;entryX=0.5;entryY=1;entryDx=0;entryDy=0;" edge="1" parent="1" source="vhvZTh_FQUSVOUHBl7UA-470" target="vhvZTh_FQUSVOUHBl7UA-468">
          <mxGeometry relative="1" as="geometry" />
        </mxCell>
        <mxCell id="vhvZTh_FQUSVOUHBl7UA-470" value="B" style="ellipse;whiteSpace=wrap;html=1;aspect=fixed;" vertex="1" parent="1">
          <mxGeometry x="407.5" y="5480" width="80" height="80" as="geometry" />
        </mxCell>
        <mxCell id="vhvZTh_FQUSVOUHBl7UA-471" style="edgeStyle=orthogonalEdgeStyle;rounded=0;orthogonalLoop=1;jettySize=auto;html=1;exitX=0.5;exitY=0;exitDx=0;exitDy=0;entryX=0.5;entryY=1;entryDx=0;entryDy=0;" edge="1" parent="1" source="vhvZTh_FQUSVOUHBl7UA-472" target="vhvZTh_FQUSVOUHBl7UA-468">
          <mxGeometry relative="1" as="geometry" />
        </mxCell>
        <mxCell id="vhvZTh_FQUSVOUHBl7UA-472" value="C" style="ellipse;whiteSpace=wrap;html=1;aspect=fixed;" vertex="1" parent="1">
          <mxGeometry x="175.5" y="5480" width="80" height="80" as="geometry" />
        </mxCell>
        <mxCell id="vhvZTh_FQUSVOUHBl7UA-473" style="edgeStyle=orthogonalEdgeStyle;rounded=0;orthogonalLoop=1;jettySize=auto;html=1;exitX=0.5;exitY=0;exitDx=0;exitDy=0;entryX=0.5;entryY=1;entryDx=0;entryDy=0;" edge="1" parent="1" source="vhvZTh_FQUSVOUHBl7UA-474" target="vhvZTh_FQUSVOUHBl7UA-481">
          <mxGeometry relative="1" as="geometry" />
        </mxCell>
        <mxCell id="vhvZTh_FQUSVOUHBl7UA-474" value="D" style="ellipse;whiteSpace=wrap;html=1;aspect=fixed;" vertex="1" parent="1">
          <mxGeometry x="887.5" y="5480" width="80" height="80" as="geometry" />
        </mxCell>
        <mxCell id="vhvZTh_FQUSVOUHBl7UA-475" style="edgeStyle=orthogonalEdgeStyle;rounded=0;orthogonalLoop=1;jettySize=auto;html=1;exitX=0.5;exitY=0;exitDx=0;exitDy=0;entryX=0.5;entryY=1;entryDx=0;entryDy=0;" edge="1" parent="1" source="vhvZTh_FQUSVOUHBl7UA-476" target="vhvZTh_FQUSVOUHBl7UA-468">
          <mxGeometry relative="1" as="geometry" />
        </mxCell>
        <mxCell id="vhvZTh_FQUSVOUHBl7UA-476" value="E" style="ellipse;whiteSpace=wrap;html=1;aspect=fixed;" vertex="1" parent="1">
          <mxGeometry x="530" y="5480" width="80" height="80" as="geometry" />
        </mxCell>
        <mxCell id="vhvZTh_FQUSVOUHBl7UA-477" style="edgeStyle=orthogonalEdgeStyle;rounded=0;orthogonalLoop=1;jettySize=auto;html=1;exitX=0.5;exitY=0;exitDx=0;exitDy=0;entryX=0.5;entryY=1;entryDx=0;entryDy=0;" edge="1" parent="1" source="vhvZTh_FQUSVOUHBl7UA-478" target="vhvZTh_FQUSVOUHBl7UA-468">
          <mxGeometry relative="1" as="geometry" />
        </mxCell>
        <mxCell id="vhvZTh_FQUSVOUHBl7UA-478" value="F" style="ellipse;whiteSpace=wrap;html=1;aspect=fixed;" vertex="1" parent="1">
          <mxGeometry x="647.5" y="5480" width="80" height="80" as="geometry" />
        </mxCell>
        <mxCell id="vhvZTh_FQUSVOUHBl7UA-479" style="edgeStyle=orthogonalEdgeStyle;rounded=0;orthogonalLoop=1;jettySize=auto;html=1;exitX=0.5;exitY=0;exitDx=0;exitDy=0;entryX=0.5;entryY=1;entryDx=0;entryDy=0;" edge="1" parent="1" source="vhvZTh_FQUSVOUHBl7UA-480" target="vhvZTh_FQUSVOUHBl7UA-468">
          <mxGeometry relative="1" as="geometry" />
        </mxCell>
        <mxCell id="vhvZTh_FQUSVOUHBl7UA-480" value="G" style="ellipse;whiteSpace=wrap;html=1;aspect=fixed;" vertex="1" parent="1">
          <mxGeometry x="295.5" y="5480" width="80" height="80" as="geometry" />
        </mxCell>
        <mxCell id="vhvZTh_FQUSVOUHBl7UA-481" value="H" style="ellipse;whiteSpace=wrap;html=1;aspect=fixed;" vertex="1" parent="1">
          <mxGeometry x="887.5" y="5340" width="80" height="80" as="geometry" />
        </mxCell>
        <mxCell id="vhvZTh_FQUSVOUHBl7UA-482" style="edgeStyle=orthogonalEdgeStyle;rounded=0;orthogonalLoop=1;jettySize=auto;html=1;exitX=0.5;exitY=0;exitDx=0;exitDy=0;entryX=0.5;entryY=1;entryDx=0;entryDy=0;" edge="1" parent="1" source="vhvZTh_FQUSVOUHBl7UA-483" target="vhvZTh_FQUSVOUHBl7UA-468">
          <mxGeometry relative="1" as="geometry" />
        </mxCell>
        <mxCell id="vhvZTh_FQUSVOUHBl7UA-483" value="I" style="ellipse;whiteSpace=wrap;html=1;aspect=fixed;" vertex="1" parent="1">
          <mxGeometry x="47.5" y="5480" width="80" height="80" as="geometry" />
        </mxCell>
        <mxCell id="vhvZTh_FQUSVOUHBl7UA-493" style="edgeStyle=orthogonalEdgeStyle;rounded=0;orthogonalLoop=1;jettySize=auto;html=1;exitX=0.5;exitY=0;exitDx=0;exitDy=0;entryX=0.5;entryY=1;entryDx=0;entryDy=0;" edge="1" parent="1" source="vhvZTh_FQUSVOUHBl7UA-484" target="vhvZTh_FQUSVOUHBl7UA-481">
          <mxGeometry relative="1" as="geometry" />
        </mxCell>
        <mxCell id="vhvZTh_FQUSVOUHBl7UA-484" value="J" style="ellipse;whiteSpace=wrap;html=1;aspect=fixed;" vertex="1" parent="1">
          <mxGeometry x="1140" y="5480" width="80" height="80" as="geometry" />
        </mxCell>
        <mxCell id="vhvZTh_FQUSVOUHBl7UA-485" style="edgeStyle=orthogonalEdgeStyle;rounded=0;orthogonalLoop=1;jettySize=auto;html=1;exitX=0.5;exitY=0;exitDx=0;exitDy=0;entryX=0.5;entryY=1;entryDx=0;entryDy=0;" edge="1" parent="1" source="vhvZTh_FQUSVOUHBl7UA-486" target="vhvZTh_FQUSVOUHBl7UA-481">
          <mxGeometry relative="1" as="geometry" />
        </mxCell>
        <mxCell id="vhvZTh_FQUSVOUHBl7UA-486" value="K" style="ellipse;whiteSpace=wrap;html=1;aspect=fixed;" vertex="1" parent="1">
          <mxGeometry x="1020" y="5480" width="80" height="80" as="geometry" />
        </mxCell>
        <mxCell id="vhvZTh_FQUSVOUHBl7UA-487" value="P" style="ellipse;whiteSpace=wrap;html=1;aspect=fixed;" vertex="1" parent="1">
          <mxGeometry x="1367.5" y="5340" width="80" height="80" as="geometry" />
        </mxCell>
        <mxCell id="vhvZTh_FQUSVOUHBl7UA-488" style="edgeStyle=orthogonalEdgeStyle;rounded=0;orthogonalLoop=1;jettySize=auto;html=1;exitX=0.5;exitY=0;exitDx=0;exitDy=0;entryX=0.5;entryY=1;entryDx=0;entryDy=0;" edge="1" parent="1" source="vhvZTh_FQUSVOUHBl7UA-489" target="vhvZTh_FQUSVOUHBl7UA-487">
          <mxGeometry relative="1" as="geometry" />
        </mxCell>
        <mxCell id="vhvZTh_FQUSVOUHBl7UA-489" value="M" style="ellipse;whiteSpace=wrap;html=1;aspect=fixed;" vertex="1" parent="1">
          <mxGeometry x="1367.5" y="5480" width="80" height="80" as="geometry" />
        </mxCell>
        <mxCell id="vhvZTh_FQUSVOUHBl7UA-490" style="edgeStyle=orthogonalEdgeStyle;rounded=0;orthogonalLoop=1;jettySize=auto;html=1;exitX=0.5;exitY=0;exitDx=0;exitDy=0;entryX=0.5;entryY=1;entryDx=0;entryDy=0;" edge="1" parent="1" source="vhvZTh_FQUSVOUHBl7UA-491" target="vhvZTh_FQUSVOUHBl7UA-487">
          <mxGeometry relative="1" as="geometry" />
        </mxCell>
        <mxCell id="vhvZTh_FQUSVOUHBl7UA-491" value="N" style="ellipse;whiteSpace=wrap;html=1;aspect=fixed;" vertex="1" parent="1">
          <mxGeometry x="1502" y="5480" width="80" height="80" as="geometry" />
        </mxCell>
        <mxCell id="vhvZTh_FQUSVOUHBl7UA-492" value="&lt;span style=&quot;font-size: 24px;&quot;&gt;Edge 18:H-J&lt;/span&gt;" style="text;html=1;strokeColor=none;fillColor=none;align=center;verticalAlign=middle;whiteSpace=wrap;rounded=0;" vertex="1" parent="1">
          <mxGeometry x="114" y="5280" width="1389" height="30" as="geometry" />
        </mxCell>
        <mxCell id="vhvZTh_FQUSVOUHBl7UA-494" value="A" style="ellipse;whiteSpace=wrap;html=1;aspect=fixed;" vertex="1" parent="1">
          <mxGeometry x="47.5" y="5640" width="80" height="80" as="geometry" />
        </mxCell>
        <mxCell id="vhvZTh_FQUSVOUHBl7UA-495" style="edgeStyle=orthogonalEdgeStyle;rounded=0;orthogonalLoop=1;jettySize=auto;html=1;exitX=0.5;exitY=0;exitDx=0;exitDy=0;entryX=0.5;entryY=1;entryDx=0;entryDy=0;" edge="1" parent="1" source="vhvZTh_FQUSVOUHBl7UA-496" target="vhvZTh_FQUSVOUHBl7UA-494">
          <mxGeometry relative="1" as="geometry" />
        </mxCell>
        <mxCell id="vhvZTh_FQUSVOUHBl7UA-496" value="B" style="ellipse;whiteSpace=wrap;html=1;aspect=fixed;" vertex="1" parent="1">
          <mxGeometry x="407.5" y="5780" width="80" height="80" as="geometry" />
        </mxCell>
        <mxCell id="vhvZTh_FQUSVOUHBl7UA-497" style="edgeStyle=orthogonalEdgeStyle;rounded=0;orthogonalLoop=1;jettySize=auto;html=1;exitX=0.5;exitY=0;exitDx=0;exitDy=0;entryX=0.5;entryY=1;entryDx=0;entryDy=0;" edge="1" parent="1" source="vhvZTh_FQUSVOUHBl7UA-498" target="vhvZTh_FQUSVOUHBl7UA-494">
          <mxGeometry relative="1" as="geometry" />
        </mxCell>
        <mxCell id="vhvZTh_FQUSVOUHBl7UA-498" value="C" style="ellipse;whiteSpace=wrap;html=1;aspect=fixed;" vertex="1" parent="1">
          <mxGeometry x="175.5" y="5780" width="80" height="80" as="geometry" />
        </mxCell>
        <mxCell id="vhvZTh_FQUSVOUHBl7UA-499" style="edgeStyle=orthogonalEdgeStyle;rounded=0;orthogonalLoop=1;jettySize=auto;html=1;exitX=0.5;exitY=0;exitDx=0;exitDy=0;entryX=0.5;entryY=1;entryDx=0;entryDy=0;" edge="1" parent="1" source="vhvZTh_FQUSVOUHBl7UA-500" target="vhvZTh_FQUSVOUHBl7UA-507">
          <mxGeometry relative="1" as="geometry" />
        </mxCell>
        <mxCell id="vhvZTh_FQUSVOUHBl7UA-500" value="D" style="ellipse;whiteSpace=wrap;html=1;aspect=fixed;" vertex="1" parent="1">
          <mxGeometry x="887.5" y="5780" width="80" height="80" as="geometry" />
        </mxCell>
        <mxCell id="vhvZTh_FQUSVOUHBl7UA-501" style="edgeStyle=orthogonalEdgeStyle;rounded=0;orthogonalLoop=1;jettySize=auto;html=1;exitX=0.5;exitY=0;exitDx=0;exitDy=0;entryX=0.5;entryY=1;entryDx=0;entryDy=0;" edge="1" parent="1" source="vhvZTh_FQUSVOUHBl7UA-502" target="vhvZTh_FQUSVOUHBl7UA-494">
          <mxGeometry relative="1" as="geometry" />
        </mxCell>
        <mxCell id="vhvZTh_FQUSVOUHBl7UA-502" value="E" style="ellipse;whiteSpace=wrap;html=1;aspect=fixed;" vertex="1" parent="1">
          <mxGeometry x="530" y="5780" width="80" height="80" as="geometry" />
        </mxCell>
        <mxCell id="vhvZTh_FQUSVOUHBl7UA-503" style="edgeStyle=orthogonalEdgeStyle;rounded=0;orthogonalLoop=1;jettySize=auto;html=1;exitX=0.5;exitY=0;exitDx=0;exitDy=0;entryX=0.5;entryY=1;entryDx=0;entryDy=0;" edge="1" parent="1" source="vhvZTh_FQUSVOUHBl7UA-504" target="vhvZTh_FQUSVOUHBl7UA-494">
          <mxGeometry relative="1" as="geometry" />
        </mxCell>
        <mxCell id="vhvZTh_FQUSVOUHBl7UA-504" value="F" style="ellipse;whiteSpace=wrap;html=1;aspect=fixed;" vertex="1" parent="1">
          <mxGeometry x="647.5" y="5780" width="80" height="80" as="geometry" />
        </mxCell>
        <mxCell id="vhvZTh_FQUSVOUHBl7UA-505" style="edgeStyle=orthogonalEdgeStyle;rounded=0;orthogonalLoop=1;jettySize=auto;html=1;exitX=0.5;exitY=0;exitDx=0;exitDy=0;entryX=0.5;entryY=1;entryDx=0;entryDy=0;" edge="1" parent="1" source="vhvZTh_FQUSVOUHBl7UA-506" target="vhvZTh_FQUSVOUHBl7UA-494">
          <mxGeometry relative="1" as="geometry" />
        </mxCell>
        <mxCell id="vhvZTh_FQUSVOUHBl7UA-506" value="G" style="ellipse;whiteSpace=wrap;html=1;aspect=fixed;" vertex="1" parent="1">
          <mxGeometry x="295.5" y="5780" width="80" height="80" as="geometry" />
        </mxCell>
        <mxCell id="vhvZTh_FQUSVOUHBl7UA-507" value="H" style="ellipse;whiteSpace=wrap;html=1;aspect=fixed;" vertex="1" parent="1">
          <mxGeometry x="887.5" y="5640" width="80" height="80" as="geometry" />
        </mxCell>
        <mxCell id="vhvZTh_FQUSVOUHBl7UA-508" style="edgeStyle=orthogonalEdgeStyle;rounded=0;orthogonalLoop=1;jettySize=auto;html=1;exitX=0.5;exitY=0;exitDx=0;exitDy=0;entryX=0.5;entryY=1;entryDx=0;entryDy=0;" edge="1" parent="1" source="vhvZTh_FQUSVOUHBl7UA-509" target="vhvZTh_FQUSVOUHBl7UA-494">
          <mxGeometry relative="1" as="geometry" />
        </mxCell>
        <mxCell id="vhvZTh_FQUSVOUHBl7UA-509" value="I" style="ellipse;whiteSpace=wrap;html=1;aspect=fixed;" vertex="1" parent="1">
          <mxGeometry x="47.5" y="5780" width="80" height="80" as="geometry" />
        </mxCell>
        <mxCell id="vhvZTh_FQUSVOUHBl7UA-510" style="edgeStyle=orthogonalEdgeStyle;rounded=0;orthogonalLoop=1;jettySize=auto;html=1;exitX=0.5;exitY=0;exitDx=0;exitDy=0;entryX=0.5;entryY=1;entryDx=0;entryDy=0;" edge="1" parent="1" source="vhvZTh_FQUSVOUHBl7UA-511" target="vhvZTh_FQUSVOUHBl7UA-507">
          <mxGeometry relative="1" as="geometry" />
        </mxCell>
        <mxCell id="vhvZTh_FQUSVOUHBl7UA-511" value="J" style="ellipse;whiteSpace=wrap;html=1;aspect=fixed;" vertex="1" parent="1">
          <mxGeometry x="1140" y="5780" width="80" height="80" as="geometry" />
        </mxCell>
        <mxCell id="vhvZTh_FQUSVOUHBl7UA-512" style="edgeStyle=orthogonalEdgeStyle;rounded=0;orthogonalLoop=1;jettySize=auto;html=1;exitX=0.5;exitY=0;exitDx=0;exitDy=0;entryX=0.5;entryY=1;entryDx=0;entryDy=0;" edge="1" parent="1" source="vhvZTh_FQUSVOUHBl7UA-513" target="vhvZTh_FQUSVOUHBl7UA-507">
          <mxGeometry relative="1" as="geometry" />
        </mxCell>
        <mxCell id="vhvZTh_FQUSVOUHBl7UA-513" value="K" style="ellipse;whiteSpace=wrap;html=1;aspect=fixed;" vertex="1" parent="1">
          <mxGeometry x="1020" y="5780" width="80" height="80" as="geometry" />
        </mxCell>
        <mxCell id="vhvZTh_FQUSVOUHBl7UA-514" value="P" style="ellipse;whiteSpace=wrap;html=1;aspect=fixed;" vertex="1" parent="1">
          <mxGeometry x="1367.5" y="5640" width="80" height="80" as="geometry" />
        </mxCell>
        <mxCell id="vhvZTh_FQUSVOUHBl7UA-515" style="edgeStyle=orthogonalEdgeStyle;rounded=0;orthogonalLoop=1;jettySize=auto;html=1;exitX=0.5;exitY=0;exitDx=0;exitDy=0;entryX=0.5;entryY=1;entryDx=0;entryDy=0;" edge="1" parent="1" source="vhvZTh_FQUSVOUHBl7UA-516" target="vhvZTh_FQUSVOUHBl7UA-514">
          <mxGeometry relative="1" as="geometry" />
        </mxCell>
        <mxCell id="vhvZTh_FQUSVOUHBl7UA-516" value="M" style="ellipse;whiteSpace=wrap;html=1;aspect=fixed;" vertex="1" parent="1">
          <mxGeometry x="1367.5" y="5780" width="80" height="80" as="geometry" />
        </mxCell>
        <mxCell id="vhvZTh_FQUSVOUHBl7UA-517" style="edgeStyle=orthogonalEdgeStyle;rounded=0;orthogonalLoop=1;jettySize=auto;html=1;exitX=0.5;exitY=0;exitDx=0;exitDy=0;entryX=0.5;entryY=1;entryDx=0;entryDy=0;" edge="1" parent="1" source="vhvZTh_FQUSVOUHBl7UA-518" target="vhvZTh_FQUSVOUHBl7UA-514">
          <mxGeometry relative="1" as="geometry" />
        </mxCell>
        <mxCell id="vhvZTh_FQUSVOUHBl7UA-518" value="N" style="ellipse;whiteSpace=wrap;html=1;aspect=fixed;" vertex="1" parent="1">
          <mxGeometry x="1502" y="5780" width="80" height="80" as="geometry" />
        </mxCell>
        <mxCell id="vhvZTh_FQUSVOUHBl7UA-519" value="&lt;span style=&quot;font-size: 24px;&quot;&gt;Edge 19:H-K&lt;/span&gt;" style="text;html=1;strokeColor=none;fillColor=none;align=center;verticalAlign=middle;whiteSpace=wrap;rounded=0;" vertex="1" parent="1">
          <mxGeometry x="114" y="5580" width="1389" height="30" as="geometry" />
        </mxCell>
        <mxCell id="vhvZTh_FQUSVOUHBl7UA-520" value="A" style="ellipse;whiteSpace=wrap;html=1;aspect=fixed;" vertex="1" parent="1">
          <mxGeometry x="47.5" y="5930" width="80" height="80" as="geometry" />
        </mxCell>
        <mxCell id="vhvZTh_FQUSVOUHBl7UA-521" style="edgeStyle=orthogonalEdgeStyle;rounded=0;orthogonalLoop=1;jettySize=auto;html=1;exitX=0.5;exitY=0;exitDx=0;exitDy=0;entryX=0.5;entryY=1;entryDx=0;entryDy=0;" edge="1" parent="1" source="vhvZTh_FQUSVOUHBl7UA-522" target="vhvZTh_FQUSVOUHBl7UA-520">
          <mxGeometry relative="1" as="geometry" />
        </mxCell>
        <mxCell id="vhvZTh_FQUSVOUHBl7UA-522" value="B" style="ellipse;whiteSpace=wrap;html=1;aspect=fixed;" vertex="1" parent="1">
          <mxGeometry x="407.5" y="6070" width="80" height="80" as="geometry" />
        </mxCell>
        <mxCell id="vhvZTh_FQUSVOUHBl7UA-523" style="edgeStyle=orthogonalEdgeStyle;rounded=0;orthogonalLoop=1;jettySize=auto;html=1;exitX=0.5;exitY=0;exitDx=0;exitDy=0;entryX=0.5;entryY=1;entryDx=0;entryDy=0;" edge="1" parent="1" source="vhvZTh_FQUSVOUHBl7UA-524" target="vhvZTh_FQUSVOUHBl7UA-520">
          <mxGeometry relative="1" as="geometry" />
        </mxCell>
        <mxCell id="vhvZTh_FQUSVOUHBl7UA-524" value="C" style="ellipse;whiteSpace=wrap;html=1;aspect=fixed;" vertex="1" parent="1">
          <mxGeometry x="175.5" y="6070" width="80" height="80" as="geometry" />
        </mxCell>
        <mxCell id="vhvZTh_FQUSVOUHBl7UA-525" style="edgeStyle=orthogonalEdgeStyle;rounded=0;orthogonalLoop=1;jettySize=auto;html=1;exitX=0.5;exitY=0;exitDx=0;exitDy=0;entryX=0.5;entryY=1;entryDx=0;entryDy=0;" edge="1" parent="1" source="vhvZTh_FQUSVOUHBl7UA-526" target="vhvZTh_FQUSVOUHBl7UA-533">
          <mxGeometry relative="1" as="geometry" />
        </mxCell>
        <mxCell id="vhvZTh_FQUSVOUHBl7UA-526" value="D" style="ellipse;whiteSpace=wrap;html=1;aspect=fixed;" vertex="1" parent="1">
          <mxGeometry x="887.5" y="6070" width="80" height="80" as="geometry" />
        </mxCell>
        <mxCell id="vhvZTh_FQUSVOUHBl7UA-527" style="edgeStyle=orthogonalEdgeStyle;rounded=0;orthogonalLoop=1;jettySize=auto;html=1;exitX=0.5;exitY=0;exitDx=0;exitDy=0;entryX=0.5;entryY=1;entryDx=0;entryDy=0;" edge="1" parent="1" source="vhvZTh_FQUSVOUHBl7UA-528" target="vhvZTh_FQUSVOUHBl7UA-520">
          <mxGeometry relative="1" as="geometry" />
        </mxCell>
        <mxCell id="vhvZTh_FQUSVOUHBl7UA-528" value="E" style="ellipse;whiteSpace=wrap;html=1;aspect=fixed;" vertex="1" parent="1">
          <mxGeometry x="530" y="6070" width="80" height="80" as="geometry" />
        </mxCell>
        <mxCell id="vhvZTh_FQUSVOUHBl7UA-529" style="edgeStyle=orthogonalEdgeStyle;rounded=0;orthogonalLoop=1;jettySize=auto;html=1;exitX=0.5;exitY=0;exitDx=0;exitDy=0;entryX=0.5;entryY=1;entryDx=0;entryDy=0;" edge="1" parent="1" source="vhvZTh_FQUSVOUHBl7UA-530" target="vhvZTh_FQUSVOUHBl7UA-520">
          <mxGeometry relative="1" as="geometry" />
        </mxCell>
        <mxCell id="vhvZTh_FQUSVOUHBl7UA-530" value="F" style="ellipse;whiteSpace=wrap;html=1;aspect=fixed;" vertex="1" parent="1">
          <mxGeometry x="647.5" y="6070" width="80" height="80" as="geometry" />
        </mxCell>
        <mxCell id="vhvZTh_FQUSVOUHBl7UA-531" style="edgeStyle=orthogonalEdgeStyle;rounded=0;orthogonalLoop=1;jettySize=auto;html=1;exitX=0.5;exitY=0;exitDx=0;exitDy=0;entryX=0.5;entryY=1;entryDx=0;entryDy=0;" edge="1" parent="1" source="vhvZTh_FQUSVOUHBl7UA-532" target="vhvZTh_FQUSVOUHBl7UA-520">
          <mxGeometry relative="1" as="geometry" />
        </mxCell>
        <mxCell id="vhvZTh_FQUSVOUHBl7UA-532" value="G" style="ellipse;whiteSpace=wrap;html=1;aspect=fixed;" vertex="1" parent="1">
          <mxGeometry x="295.5" y="6070" width="80" height="80" as="geometry" />
        </mxCell>
        <mxCell id="vhvZTh_FQUSVOUHBl7UA-533" value="H" style="ellipse;whiteSpace=wrap;html=1;aspect=fixed;" vertex="1" parent="1">
          <mxGeometry x="887.5" y="5930" width="80" height="80" as="geometry" />
        </mxCell>
        <mxCell id="vhvZTh_FQUSVOUHBl7UA-534" style="edgeStyle=orthogonalEdgeStyle;rounded=0;orthogonalLoop=1;jettySize=auto;html=1;exitX=0.5;exitY=0;exitDx=0;exitDy=0;entryX=0.5;entryY=1;entryDx=0;entryDy=0;" edge="1" parent="1" source="vhvZTh_FQUSVOUHBl7UA-535" target="vhvZTh_FQUSVOUHBl7UA-520">
          <mxGeometry relative="1" as="geometry" />
        </mxCell>
        <mxCell id="vhvZTh_FQUSVOUHBl7UA-535" value="I" style="ellipse;whiteSpace=wrap;html=1;aspect=fixed;" vertex="1" parent="1">
          <mxGeometry x="47.5" y="6070" width="80" height="80" as="geometry" />
        </mxCell>
        <mxCell id="vhvZTh_FQUSVOUHBl7UA-536" style="edgeStyle=orthogonalEdgeStyle;rounded=0;orthogonalLoop=1;jettySize=auto;html=1;exitX=0.5;exitY=0;exitDx=0;exitDy=0;entryX=0.5;entryY=1;entryDx=0;entryDy=0;" edge="1" parent="1" source="vhvZTh_FQUSVOUHBl7UA-537" target="vhvZTh_FQUSVOUHBl7UA-533">
          <mxGeometry relative="1" as="geometry" />
        </mxCell>
        <mxCell id="vhvZTh_FQUSVOUHBl7UA-537" value="J" style="ellipse;whiteSpace=wrap;html=1;aspect=fixed;" vertex="1" parent="1">
          <mxGeometry x="1140" y="6070" width="80" height="80" as="geometry" />
        </mxCell>
        <mxCell id="vhvZTh_FQUSVOUHBl7UA-538" style="edgeStyle=orthogonalEdgeStyle;rounded=0;orthogonalLoop=1;jettySize=auto;html=1;exitX=0.5;exitY=0;exitDx=0;exitDy=0;entryX=0.5;entryY=1;entryDx=0;entryDy=0;" edge="1" parent="1" source="vhvZTh_FQUSVOUHBl7UA-539" target="vhvZTh_FQUSVOUHBl7UA-533">
          <mxGeometry relative="1" as="geometry" />
        </mxCell>
        <mxCell id="vhvZTh_FQUSVOUHBl7UA-539" value="K" style="ellipse;whiteSpace=wrap;html=1;aspect=fixed;" vertex="1" parent="1">
          <mxGeometry x="1020" y="6070" width="80" height="80" as="geometry" />
        </mxCell>
        <mxCell id="vhvZTh_FQUSVOUHBl7UA-540" value="P" style="ellipse;whiteSpace=wrap;html=1;aspect=fixed;" vertex="1" parent="1">
          <mxGeometry x="1367.5" y="5930" width="80" height="80" as="geometry" />
        </mxCell>
        <mxCell id="vhvZTh_FQUSVOUHBl7UA-541" style="edgeStyle=orthogonalEdgeStyle;rounded=0;orthogonalLoop=1;jettySize=auto;html=1;exitX=0.5;exitY=0;exitDx=0;exitDy=0;entryX=0.5;entryY=1;entryDx=0;entryDy=0;" edge="1" parent="1" source="vhvZTh_FQUSVOUHBl7UA-542" target="vhvZTh_FQUSVOUHBl7UA-540">
          <mxGeometry relative="1" as="geometry" />
        </mxCell>
        <mxCell id="vhvZTh_FQUSVOUHBl7UA-542" value="M" style="ellipse;whiteSpace=wrap;html=1;aspect=fixed;" vertex="1" parent="1">
          <mxGeometry x="1367.5" y="6070" width="80" height="80" as="geometry" />
        </mxCell>
        <mxCell id="vhvZTh_FQUSVOUHBl7UA-543" style="edgeStyle=orthogonalEdgeStyle;rounded=0;orthogonalLoop=1;jettySize=auto;html=1;exitX=0.5;exitY=0;exitDx=0;exitDy=0;entryX=0.5;entryY=1;entryDx=0;entryDy=0;" edge="1" parent="1" source="vhvZTh_FQUSVOUHBl7UA-544" target="vhvZTh_FQUSVOUHBl7UA-540">
          <mxGeometry relative="1" as="geometry" />
        </mxCell>
        <mxCell id="vhvZTh_FQUSVOUHBl7UA-544" value="N" style="ellipse;whiteSpace=wrap;html=1;aspect=fixed;" vertex="1" parent="1">
          <mxGeometry x="1502" y="6070" width="80" height="80" as="geometry" />
        </mxCell>
        <mxCell id="vhvZTh_FQUSVOUHBl7UA-545" value="&lt;span style=&quot;font-size: 24px;&quot;&gt;Edge 20:J-K&lt;/span&gt;" style="text;html=1;strokeColor=none;fillColor=none;align=center;verticalAlign=middle;whiteSpace=wrap;rounded=0;" vertex="1" parent="1">
          <mxGeometry x="115" y="5870" width="1389" height="30" as="geometry" />
        </mxCell>
      </root>
    </mxGraphModel>
  </diagram>
</mxfile>
